<svg id="svg" version="1.1" xmlns="http://www.w3.org/2000/svg" xmlns:xlink="http://www.w3.org/1999/xlink" width="400" height="87.74928774928776" viewBox="0, 0, 400,87.74928774928776"><g id="svgg"><path id="path0" d="M127.938 8.174 C 127.564 8.923,127.526 80.051,127.899 80.542 C 128.181 80.913,128.379 80.910,128.724 80.529 C 128.979 80.247,129.000 77.506,128.994 44.404 L 128.988 8.583 128.598 8.107 L 128.209 7.631 127.938 8.174 M249.833 22.745 C 249.421 22.863,248.446 23.283,247.667 23.678 C 246.439 24.300,245.795 24.766,244.271 26.136 C 244.099 26.290,243.859 26.642,243.736 26.917 C 243.614 27.192,243.213 27.737,242.844 28.128 C 242.185 28.828,241.668 30.173,241.666 31.191 C 241.666 31.407,241.480 32.108,241.253 32.750 L 240.840 33.917 240.839 44.500 C 240.838 54.699,240.851 55.132,241.187 56.417 C 241.378 57.150,241.601 58.076,241.682 58.475 C 242.024 60.155,242.219 60.594,243.012 61.461 C 243.459 61.951,243.947 62.553,244.097 62.800 C 244.246 63.048,244.787 63.550,245.299 63.917 C 245.811 64.283,246.534 64.811,246.907 65.089 C 249.543 67.058,256.197 67.107,258.614 65.174 C 258.906 64.941,259.686 64.375,260.348 63.917 C 261.490 63.126,262.282 62.166,263.305 60.333 C 263.588 59.825,264.162 57.584,264.165 56.973 C 264.166 56.729,264.392 56.054,264.667 55.473 L 265.166 54.417 265.164 50.083 C 265.161 44.052,265.646 44.450,258.398 44.532 C 252.892 44.594,253.432 44.254,253.363 47.699 C 253.291 51.309,253.213 51.114,254.791 51.248 C 257.676 51.494,258.333 52.016,258.333 54.062 C 258.333 58.098,255.175 60.677,251.381 59.739 C 249.784 59.344,249.409 59.076,248.542 57.708 C 248.120 57.044,247.713 56.500,247.638 56.500 C 247.381 56.500,247.468 33.873,247.727 33.275 C 247.852 32.986,248.088 32.432,248.252 32.043 C 249.759 28.459,255.070 27.970,256.946 31.242 C 257.837 32.796,258.333 34.197,258.333 35.156 C 258.333 36.878,260.922 37.608,263.722 36.676 C 265.363 36.130,265.449 35.830,264.651 33.423 C 264.468 32.869,264.212 31.873,264.084 31.209 C 263.674 29.097,262.187 26.549,260.770 25.532 C 260.347 25.228,259.927 24.841,259.835 24.671 C 259.744 24.500,259.275 24.231,258.793 24.071 C 258.311 23.912,257.635 23.605,257.292 23.389 C 255.935 22.536,251.805 22.180,249.833 22.745 M158.066 23.186 C 156.808 23.476,156.592 23.895,156.528 26.169 L 156.473 28.145 157.178 28.656 L 157.883 29.167 163.567 29.169 C 170.735 29.173,170.998 29.258,170.512 31.430 C 170.406 31.903,170.083 32.657,169.794 33.104 C 169.505 33.551,169.137 34.298,168.975 34.764 C 168.813 35.230,168.405 36.018,168.067 36.514 C 167.729 37.010,167.245 37.867,166.991 38.417 C 166.736 38.967,166.353 39.602,166.139 39.828 C 165.718 40.273,165.167 41.383,165.167 41.785 C 165.167 42.045,164.674 43.190,164.500 43.333 C 164.078 43.682,163.437 44.792,163.252 45.493 C 163.129 45.958,162.755 46.751,162.421 47.254 C 162.087 47.757,161.633 48.579,161.411 49.079 C 161.190 49.580,160.789 50.185,160.521 50.424 C 160.196 50.714,159.907 51.255,159.652 52.054 C 159.443 52.712,158.956 53.785,158.572 54.438 C 158.188 55.091,157.750 55.999,157.598 56.456 C 157.446 56.912,157.143 57.454,156.925 57.659 C 156.043 58.488,155.790 59.508,155.703 62.598 L 155.623 65.446 156.129 65.806 L 156.635 66.167 167.609 66.159 C 179.088 66.150,179.763 66.109,179.746 65.415 C 179.718 64.329,179.233 60.633,179.065 60.232 C 178.752 59.482,178.924 59.500,171.894 59.500 C 164.471 59.500,164.171 59.447,164.168 58.129 C 164.167 57.450,164.947 55.844,165.592 55.197 C 165.804 54.984,166.164 54.256,166.391 53.580 C 166.619 52.903,167.087 51.925,167.431 51.406 C 167.775 50.887,168.222 49.991,168.423 49.415 C 168.625 48.838,168.957 48.190,169.163 47.975 C 169.368 47.760,169.780 47.053,170.078 46.404 C 170.377 45.755,170.895 44.827,171.230 44.340 C 171.564 43.854,171.881 43.259,171.933 43.019 C 172.111 42.198,172.407 41.582,173.147 40.501 C 173.554 39.905,173.954 39.119,174.036 38.754 C 174.119 38.388,174.470 37.713,174.817 37.253 C 175.164 36.793,175.653 35.923,175.904 35.319 C 176.155 34.715,176.580 33.965,176.849 33.652 C 177.118 33.339,177.419 32.783,177.518 32.417 C 177.616 32.050,177.873 31.396,178.089 30.963 C 179.213 28.709,179.114 24.013,177.929 23.364 C 177.336 23.039,159.400 22.878,158.066 23.186 M190.327 23.209 C 189.671 23.394,189.290 24.097,189.091 25.496 C 189.032 25.906,188.807 26.881,188.590 27.662 C 188.373 28.444,188.072 30.058,187.923 31.250 C 187.405 35.366,187.301 35.921,186.830 37.083 C 186.329 38.321,185.983 40.275,185.591 44.083 C 185.432 45.622,185.125 47.268,184.688 48.917 C 184.215 50.700,183.995 51.918,183.920 53.167 C 183.791 55.346,183.430 57.197,182.639 59.750 C 182.472 60.288,181.833 64.659,181.833 65.263 C 181.833 65.896,182.712 66.167,184.775 66.167 C 187.471 66.169,188.042 65.923,188.417 64.599 C 189.382 61.188,189.287 61.267,192.555 61.193 C 197.852 61.073,198.582 61.463,198.926 64.600 C 199.087 66.065,199.307 66.167,202.339 66.167 C 206.032 66.167,206.229 65.929,205.245 62.667 C 204.509 60.226,204.097 57.953,203.915 55.333 C 203.747 52.902,203.489 51.507,203.012 50.443 C 202.664 49.667,202.482 48.843,202.271 47.083 C 202.117 45.800,201.873 43.783,201.730 42.600 C 201.584 41.391,201.260 39.787,200.991 38.934 C 200.621 37.763,200.452 36.735,200.251 34.427 C 200.108 32.782,199.883 31.095,199.751 30.677 C 199.417 29.620,198.668 26.634,198.411 25.333 C 198.044 23.481,197.943 23.261,197.405 23.145 C 196.620 22.975,190.973 23.026,190.327 23.209 M212.287 23.292 C 211.593 24.059,211.589 24.139,211.497 36.000 C 211.424 45.589,211.371 47.497,211.164 47.917 C 210.960 48.333,210.910 49.849,210.868 56.963 L 210.817 65.509 211.533 65.834 C 212.515 66.280,215.945 66.300,216.833 65.866 L 217.417 65.580 217.500 57.053 L 217.583 48.527 217.979 48.105 C 218.881 47.145,220.331 46.980,223.294 47.499 C 225.587 47.900,225.967 48.087,226.872 49.264 C 228.927 51.936,228.832 51.456,228.839 59.239 L 228.844 65.583 229.264 65.889 C 229.802 66.282,234.913 66.253,235.391 65.855 C 235.638 65.650,235.667 65.014,235.667 59.825 C 235.667 53.142,235.547 51.901,234.749 50.340 C 234.443 49.740,234.039 48.725,233.851 48.083 C 233.635 47.345,233.319 46.709,232.991 46.350 C 232.017 45.285,232.029 44.499,233.042 42.961 C 233.359 42.478,233.744 41.817,233.896 41.492 C 234.048 41.167,234.431 40.634,234.748 40.309 C 236.235 38.778,236.310 32.083,234.862 30.192 C 234.535 29.766,234.049 29.004,233.782 28.500 C 233.162 27.329,232.869 27.013,231.280 25.797 C 230.564 25.249,229.937 24.696,229.887 24.567 C 229.838 24.439,229.674 24.331,229.524 24.329 C 229.373 24.327,228.537 24.137,227.667 23.907 C 224.311 23.022,224.085 23.000,218.151 23.000 C 213.028 23.000,212.529 23.025,212.287 23.292 M272.210 23.194 C 271.168 23.427,270.668 24.152,270.664 25.432 C 270.662 25.974,270.551 27.129,270.417 28.000 C 270.001 30.699,270.051 65.510,270.471 65.891 C 270.977 66.349,288.774 66.300,289.792 65.838 L 290.500 65.516 290.500 63.319 C 290.500 59.294,290.850 59.500,284.017 59.499 C 276.461 59.498,277.099 60.022,277.034 53.763 C 276.965 47.102,276.355 47.667,283.620 47.666 C 290.816 47.664,290.500 47.840,290.500 43.843 L 290.500 41.509 289.958 41.213 C 289.482 40.952,288.777 40.907,284.083 40.833 C 276.609 40.717,276.998 41.021,277.004 35.288 C 277.010 29.468,276.836 29.613,283.915 29.536 C 286.983 29.502,289.097 29.411,289.384 29.300 C 290.865 28.726,290.953 24.358,289.503 23.375 L 288.951 23.000 280.934 23.018 C 276.524 23.028,272.598 23.107,272.210 23.194 M298.655 23.246 C 297.606 23.817,297.655 22.674,297.705 45.165 L 297.750 65.580 298.333 65.865 C 299.180 66.280,302.329 66.286,303.028 65.875 L 303.524 65.583 303.416 58.417 C 303.203 44.303,303.167 44.833,304.331 44.833 C 304.945 44.833,305.006 44.881,305.398 45.661 C 305.627 46.116,306.113 46.885,306.480 47.370 C 306.938 47.978,307.273 48.692,307.553 49.662 C 307.826 50.608,308.140 51.286,308.506 51.723 C 308.807 52.081,309.159 52.684,309.289 53.062 C 309.560 53.848,310.270 55.233,310.694 55.803 C 310.853 56.015,311.108 56.754,311.262 57.446 C 311.452 58.302,311.687 58.869,311.999 59.226 C 312.251 59.514,312.623 60.163,312.826 60.667 C 313.513 62.374,313.675 62.697,314.153 63.307 C 314.415 63.643,314.718 64.301,314.827 64.772 C 315.001 65.529,315.097 65.660,315.666 65.917 C 316.465 66.276,319.350 66.216,319.958 65.826 L 320.333 65.586 320.321 51.418 C 320.307 34.880,320.130 24.658,319.845 23.899 C 319.376 22.649,315.550 22.653,314.864 23.905 C 314.613 24.362,314.572 25.488,314.479 34.500 C 314.362 45.727,314.286 46.675,313.603 45.380 C 313.468 45.125,312.933 44.581,312.413 44.171 C 311.450 43.410,310.963 42.676,310.778 41.707 C 310.721 41.408,310.274 40.358,309.784 39.373 C 309.294 38.389,308.802 37.160,308.689 36.642 C 308.564 36.068,308.268 35.417,307.930 34.975 C 307.406 34.288,307.152 33.702,306.651 32.022 C 306.531 31.622,306.214 30.948,305.946 30.525 C 305.678 30.102,305.287 29.167,305.078 28.448 C 304.869 27.729,304.437 26.715,304.119 26.195 C 303.599 25.347,303.047 24.221,302.789 23.482 C 302.614 22.982,299.471 22.803,298.655 23.246 M328.624 23.181 C 327.616 23.767,327.667 22.610,327.667 45.129 L 327.667 65.605 328.256 65.886 C 329.849 66.646,341.063 66.214,342.333 65.344 C 342.563 65.187,343.238 64.887,343.833 64.677 C 344.429 64.466,345.035 64.191,345.180 64.064 C 345.325 63.937,345.524 63.833,345.623 63.833 C 345.723 63.833,345.993 63.608,346.224 63.333 C 346.456 63.058,346.691 62.833,346.746 62.833 C 346.987 62.833,347.885 62.047,348.086 61.659 C 348.208 61.425,348.599 60.933,348.957 60.565 C 349.388 60.120,349.677 59.620,349.819 59.073 C 349.937 58.620,350.231 57.688,350.472 57.000 L 350.912 55.750 350.961 44.331 L 351.011 32.912 350.575 31.748 C 350.335 31.107,350.068 30.294,349.981 29.941 C 349.765 29.057,349.414 28.421,348.936 28.045 C 348.714 27.870,348.393 27.499,348.224 27.221 C 347.926 26.732,346.980 25.833,346.762 25.833 C 346.703 25.833,346.321 25.514,345.913 25.123 C 345.269 24.505,344.992 24.372,343.794 24.105 C 343.037 23.937,342.154 23.698,341.833 23.575 C 341.512 23.452,340.853 23.272,340.367 23.176 C 339.205 22.945,329.022 22.949,328.624 23.181 M362.409 23.250 C 361.200 23.781,360.184 26.799,359.911 30.667 C 359.745 33.027,359.119 35.856,358.524 36.936 C 358.429 37.109,358.273 38.112,358.178 39.167 C 357.739 44.008,357.680 44.361,356.779 47.583 C 356.548 48.408,356.235 50.246,356.083 51.667 C 355.894 53.424,355.657 54.703,355.341 55.667 C 354.874 57.093,354.480 59.434,354.165 62.667 C 354.071 63.629,353.951 64.681,353.898 65.003 C 353.632 66.632,359.500 66.683,359.909 65.056 C 360.713 61.849,361.581 61.250,365.417 61.250 L 368.417 61.250 369.333 61.762 C 370.470 62.397,371.000 63.302,371.000 64.605 C 371.000 65.947,371.465 66.167,374.306 66.167 C 377.347 66.167,377.866 65.922,377.494 64.666 C 376.774 62.232,376.485 60.753,376.257 58.333 C 375.830 53.811,375.674 52.829,375.242 51.915 C 374.783 50.945,374.501 49.658,374.498 48.519 C 374.497 48.096,374.304 46.663,374.069 45.333 C 373.835 44.004,373.580 42.527,373.504 42.051 C 373.427 41.575,373.312 41.100,373.247 40.995 C 372.930 40.482,372.641 38.819,372.417 36.218 C 372.255 34.341,372.063 33.077,371.859 32.552 C 371.688 32.111,371.420 31.037,371.263 30.167 C 371.106 29.296,370.912 28.246,370.831 27.833 C 370.751 27.421,370.638 26.558,370.580 25.917 C 370.469 24.670,370.208 23.548,369.950 23.208 C 369.719 22.904,363.114 22.940,362.409 23.250 M224.753 29.534 C 225.368 29.732,227.625 31.122,228.132 31.615 C 229.666 33.104,229.338 37.771,227.621 38.878 C 227.234 39.128,226.608 39.583,226.232 39.889 C 225.299 40.646,224.068 40.887,221.563 40.804 C 217.726 40.678,217.583 40.470,217.583 35.000 C 217.583 30.025,217.674 29.784,219.750 29.266 C 220.355 29.115,224.070 29.314,224.753 29.534 M339.520 29.392 C 340.035 29.514,340.672 29.765,340.936 29.951 C 341.201 30.137,341.728 30.447,342.109 30.640 C 342.830 31.005,344.124 32.716,344.546 33.862 C 344.699 34.277,344.750 36.937,344.750 44.417 L 344.750 54.417 344.364 55.083 C 344.151 55.450,343.772 56.105,343.521 56.540 C 343.050 57.356,341.970 58.432,341.458 58.596 C 341.298 58.647,341.167 58.747,341.167 58.818 C 341.167 59.443,335.588 59.692,334.529 59.114 C 333.468 58.535,333.500 58.980,333.500 44.950 C 333.500 31.517,333.548 30.548,334.239 29.961 C 335.112 29.222,337.638 28.949,339.520 29.392 M366.765 37.529 C 367.034 38.050,367.180 39.338,367.479 43.836 C 367.570 45.210,367.712 46.103,367.892 46.453 C 368.043 46.745,368.167 47.168,368.167 47.393 C 368.167 47.618,368.354 48.761,368.583 49.933 C 369.501 54.629,369.118 55.479,366.011 55.626 C 362.265 55.804,361.844 55.045,362.746 49.750 C 362.887 48.925,363.075 47.350,363.164 46.250 C 363.347 43.993,363.581 42.838,364.007 42.094 C 364.168 41.813,364.420 41.096,364.567 40.500 C 365.003 38.744,365.261 38.145,365.836 37.556 C 366.495 36.882,366.432 36.884,366.765 37.529 M194.795 38.378 C 194.917 38.766,195.114 40.105,195.233 41.355 C 195.367 42.754,195.647 44.353,195.965 45.521 C 196.912 49.010,197.310 53.716,196.747 54.772 C 196.051 56.077,191.742 56.094,190.779 54.796 C 190.266 54.106,190.953 46.458,191.696 44.587 C 191.879 44.127,192.204 42.728,192.419 41.479 C 192.994 38.135,193.089 37.850,193.718 37.583 C 194.353 37.314,194.492 37.417,194.795 38.378 " stroke="none" fill="#2021b2" fill-rule="evenodd"></path><path id="path1" d="M0.000 43.833 L 0.000 87.667 200.000 87.667 L 400.000 87.667 400.000 43.833 L 400.000 0.000 200.000 0.000 L 0.000 0.000 0.000 43.833 M129.804 7.119 C 130.049 7.302,130.297 7.669,130.355 7.934 C 130.648 9.275,130.505 80.240,130.208 80.833 C 129.421 82.408,127.265 82.295,126.401 80.633 C 126.082 80.021,126.046 9.288,126.364 8.101 C 126.724 6.756,128.599 6.221,129.804 7.119 M58.465 7.149 C 58.809 7.324,63.099 11.458,68.117 16.449 C 73.086 21.391,77.473 25.735,77.867 26.103 C 78.261 26.472,79.229 27.443,80.018 28.261 C 81.144 29.429,85.541 33.837,86.417 34.675 C 89.600 37.724,95.049 43.275,95.170 43.593 C 95.638 44.822,95.319 45.242,90.012 50.384 C 87.965 52.368,81.126 59.129,80.500 59.788 C 80.179 60.125,78.910 61.380,77.679 62.576 C 76.448 63.772,75.248 64.969,75.012 65.237 C 74.776 65.505,73.883 66.405,73.027 67.237 C 72.171 68.069,70.934 69.297,70.277 69.965 C 68.963 71.302,65.734 74.507,61.645 78.529 C 57.269 82.835,57.569 82.881,51.917 77.040 C 51.825 76.945,49.542 74.704,46.844 72.059 C 44.145 69.414,41.670 66.961,41.344 66.607 C 41.017 66.254,40.045 65.279,39.182 64.441 C 38.320 63.602,36.992 62.279,36.232 61.500 C 35.471 60.721,34.732 59.971,34.589 59.833 C 34.446 59.696,32.277 57.558,29.769 55.083 C 27.260 52.608,24.918 50.305,24.562 49.965 C 21.173 46.719,19.833 45.166,19.833 44.483 C 19.833 43.233,18.932 44.172,43.083 20.252 C 47.850 15.531,51.825 11.589,51.917 11.492 C 56.047 7.118,57.072 6.438,58.465 7.149 M56.872 16.604 C 56.572 16.755,55.372 17.838,54.205 19.011 C 51.601 21.628,52.562 20.674,47.056 26.113 C 44.474 28.663,42.074 31.023,41.723 31.357 C 41.371 31.692,40.581 32.479,39.968 33.107 C 39.354 33.736,36.890 36.191,34.492 38.563 C 28.254 44.734,28.288 44.038,33.964 49.542 C 34.082 49.656,34.982 50.541,35.964 51.509 C 40.963 56.432,40.912 56.415,43.350 53.970 C 44.994 52.321,44.867 52.034,40.625 47.809 C 37.035 44.233,37.035 44.233,40.802 40.568 C 41.965 39.436,42.992 38.434,43.083 38.340 C 43.175 38.246,44.365 37.063,45.728 35.710 C 47.091 34.357,48.366 33.071,48.562 32.853 C 48.757 32.634,49.548 31.847,50.321 31.103 C 51.901 29.580,54.241 27.227,54.760 26.639 C 57.169 23.907,57.839 24.039,61.895 28.053 C 65.098 31.222,66.338 31.694,67.314 30.115 C 67.502 29.811,67.848 29.459,68.083 29.333 C 69.474 28.589,69.527 27.103,68.209 25.808 C 67.682 25.289,67.137 24.743,67.000 24.593 C 66.862 24.443,65.620 23.217,64.239 21.869 C 62.857 20.520,61.592 19.210,61.428 18.958 C 61.263 18.706,61.035 18.500,60.921 18.500 C 60.807 18.500,60.459 18.236,60.148 17.912 C 58.769 16.478,57.851 16.111,56.872 16.604 M178.261 21.682 C 179.906 21.985,180.156 22.456,180.288 25.507 C 180.428 28.750,180.249 30.299,179.609 31.367 C 179.318 31.853,178.862 32.809,178.595 33.493 C 178.317 34.205,177.887 34.952,177.588 35.243 C 177.279 35.542,176.938 36.143,176.755 36.711 C 176.584 37.240,176.344 37.755,176.222 37.857 C 176.100 37.958,176.000 38.115,176.000 38.205 C 176.000 38.295,175.786 38.642,175.525 38.976 C 175.264 39.310,174.891 40.061,174.696 40.646 C 174.501 41.230,174.164 41.943,173.949 42.229 C 173.506 42.817,172.500 44.889,172.500 45.213 C 172.500 45.330,172.275 45.672,172.001 45.972 C 171.401 46.629,171.259 46.883,170.902 47.938 C 170.605 48.814,169.563 50.500,169.317 50.500 C 169.234 50.500,169.167 50.648,169.167 50.830 C 169.167 51.331,168.658 52.514,168.161 53.167 C 167.917 53.487,167.581 54.125,167.415 54.583 C 167.070 55.534,166.777 56.024,166.125 56.739 C 165.581 57.335,165.517 58.075,165.989 58.327 C 166.194 58.437,168.475 58.500,172.249 58.500 C 180.362 58.500,180.181 58.438,180.357 61.277 C 180.459 62.913,180.549 63.340,180.751 63.137 C 180.798 63.091,180.908 62.310,180.996 61.401 C 181.513 56.054,181.599 55.618,182.488 53.784 C 182.956 52.820,183.007 52.525,183.236 49.417 C 183.372 47.583,183.552 45.858,183.637 45.583 C 183.722 45.308,183.923 44.521,184.083 43.833 C 184.244 43.146,184.473 42.246,184.592 41.833 C 184.712 41.421,184.853 40.333,184.907 39.417 C 185.042 37.114,185.385 35.322,185.889 34.290 C 186.467 33.105,186.637 32.290,186.834 29.750 C 187.446 21.875,187.774 21.502,194.083 21.502 C 198.781 21.501,198.845 21.532,199.888 24.322 C 200.578 26.169,200.809 27.462,200.932 30.167 C 201.012 31.933,201.130 32.830,201.371 33.500 C 202.191 35.780,202.758 38.793,202.923 41.747 C 202.999 43.094,203.154 43.983,203.505 45.083 C 203.987 46.591,204.833 51.043,204.833 52.072 C 204.833 52.905,205.295 55.383,205.757 57.023 C 206.036 58.018,206.248 59.455,206.421 61.533 C 206.560 63.211,206.717 64.818,206.769 65.105 C 206.873 65.682,206.574 66.398,206.016 66.903 C 205.610 67.269,201.379 67.481,199.672 67.220 C 198.543 67.047,198.000 66.396,198.000 65.214 C 198.000 63.501,197.251 63.104,193.874 63.024 C 190.317 62.940,189.667 63.208,189.667 64.759 C 189.667 65.761,189.255 66.611,188.603 66.954 C 187.815 67.368,182.191 67.373,181.278 66.961 C 180.672 66.687,180.612 66.687,180.111 66.961 C 179.242 67.436,156.168 67.402,155.378 66.924 C 153.591 65.843,153.952 58.985,155.933 56.382 C 156.267 55.943,156.589 55.546,156.648 55.500 C 156.707 55.454,156.853 55.042,156.971 54.585 C 157.090 54.128,157.276 53.595,157.385 53.402 C 157.494 53.209,158.054 52.104,158.629 50.946 C 159.204 49.788,159.823 48.761,160.004 48.664 C 160.185 48.568,160.333 48.397,160.333 48.286 C 160.334 47.972,161.365 45.978,161.862 45.330 C 162.108 45.011,162.399 44.375,162.510 43.917 C 162.719 43.052,163.260 42.000,163.496 42.000 C 163.570 42.000,163.883 41.359,164.189 40.575 C 164.497 39.788,165.047 38.781,165.415 38.328 C 165.783 37.876,166.208 37.111,166.361 36.628 C 166.514 36.145,166.988 35.171,167.415 34.462 C 167.994 33.500,168.213 32.946,168.283 32.272 C 168.439 30.764,168.452 30.768,162.258 30.660 C 155.108 30.535,155.114 30.538,155.038 26.591 C 154.967 22.856,155.302 22.016,157.000 21.683 C 158.130 21.462,177.060 21.461,178.261 21.682 M225.671 21.677 C 226.764 21.814,227.423 22.018,228.583 22.577 C 229.408 22.975,230.421 23.452,230.833 23.636 C 231.246 23.820,231.887 24.259,232.258 24.610 C 232.629 24.962,233.216 25.464,233.562 25.726 C 233.908 25.988,234.238 26.325,234.295 26.476 C 234.353 26.627,234.459 26.825,234.531 26.917 C 236.222 29.071,237.154 31.749,237.286 34.835 C 237.382 37.086,236.553 40.599,235.695 41.576 C 235.155 42.191,234.504 43.393,234.182 44.371 C 233.984 44.972,235.206 48.167,235.634 48.167 C 236.317 48.167,236.658 51.970,236.663 59.647 C 236.668 67.479,236.820 67.146,233.192 67.289 C 229.859 67.421,228.778 67.273,228.023 66.581 L 227.417 66.026 227.333 59.471 C 227.254 53.213,227.234 52.887,226.899 52.250 C 226.705 51.883,226.500 51.388,226.443 51.149 C 225.974 49.192,221.378 47.572,219.922 48.851 L 219.333 49.368 219.331 57.476 C 219.328 67.922,219.676 67.252,214.250 67.247 C 208.906 67.242,209.283 68.058,209.406 56.742 C 209.457 52.071,209.555 42.659,209.625 35.826 C 209.770 21.426,209.634 22.330,211.746 21.725 C 212.625 21.473,223.738 21.435,225.671 21.677 M257.417 21.714 C 257.783 21.829,258.628 22.278,259.293 22.712 C 259.959 23.145,260.559 23.500,260.627 23.501 C 261.360 23.507,264.422 27.416,264.738 28.750 C 264.804 29.025,265.033 29.438,265.248 29.667 C 266.398 30.893,266.856 35.737,265.982 37.439 C 265.382 38.608,265.051 38.720,261.963 38.803 C 257.651 38.918,256.709 38.229,256.430 34.754 C 256.256 32.582,256.192 32.383,255.450 31.701 C 255.080 31.361,254.525 30.840,254.216 30.542 C 253.327 29.683,252.309 29.801,251.095 30.905 C 250.734 31.232,250.384 31.500,250.317 31.500 C 250.249 31.500,250.019 31.781,249.805 32.125 L 249.417 32.750 249.417 44.505 C 249.417 55.692,249.432 56.294,249.733 56.962 C 250.411 58.465,252.790 59.131,254.424 58.274 C 256.037 57.429,256.250 57.048,256.414 54.723 C 256.557 52.704,256.483 52.609,254.611 52.419 C 253.692 52.326,253.371 52.213,252.944 51.832 L 252.417 51.361 252.417 48.050 C 252.417 42.564,252.125 42.780,259.388 42.867 C 265.228 42.937,265.203 42.932,266.003 44.140 L 266.500 44.890 266.500 49.933 C 266.500 52.706,266.429 55.337,266.342 55.779 C 266.255 56.221,266.102 57.004,266.002 57.518 C 265.896 58.060,265.616 58.729,265.334 59.113 C 265.067 59.477,264.766 60.144,264.666 60.595 C 264.364 61.964,262.554 64.355,261.304 65.037 C 260.847 65.286,260.322 65.682,260.137 65.916 C 259.677 66.502,258.713 66.963,257.107 67.366 C 256.361 67.553,255.563 67.799,255.333 67.913 C 254.063 68.540,251.343 68.549,250.196 67.930 C 249.595 67.606,248.190 67.167,247.753 67.167 C 247.163 67.167,245.771 66.373,245.417 65.834 C 245.233 65.555,244.765 65.172,244.375 64.982 C 243.985 64.792,243.667 64.587,243.667 64.525 C 243.667 64.464,243.182 63.907,242.589 63.288 C 241.832 62.496,241.455 61.952,241.322 61.456 C 241.217 61.068,240.990 60.487,240.818 60.167 C 239.320 57.384,239.333 57.526,239.333 44.519 C 239.333 32.158,239.431 31.071,240.707 29.267 C 240.960 28.909,241.167 28.512,241.167 28.385 C 241.167 28.082,241.805 26.834,241.962 26.830 C 242.029 26.828,242.308 26.487,242.583 26.073 C 243.443 24.779,246.931 22.054,248.195 21.690 C 249.055 21.442,256.613 21.462,257.417 21.714 M290.705 21.807 C 292.487 22.401,293.158 28.193,291.644 29.917 C 290.477 31.246,290.505 31.240,284.909 31.333 C 278.324 31.443,278.500 31.350,278.501 34.720 C 278.502 37.221,278.656 37.963,279.330 38.717 L 279.805 39.250 285.028 39.337 C 292.303 39.459,292.217 39.406,292.303 43.828 C 292.397 48.634,292.342 48.667,284.278 48.667 L 279.744 48.667 279.122 49.089 L 278.500 49.512 278.500 53.505 L 278.500 57.498 279.192 57.999 L 279.883 58.500 284.534 58.500 C 289.484 58.500,290.966 58.669,291.833 59.330 L 292.250 59.648 292.250 62.806 C 292.250 67.631,293.266 67.234,280.750 67.305 C 270.134 67.365,270.083 67.361,269.505 66.426 L 269.154 65.858 269.214 44.970 C 269.284 20.518,269.155 21.960,271.298 21.650 C 272.760 21.439,290.018 21.578,290.705 21.807 M302.937 21.742 C 303.766 22.322,305.358 24.875,305.682 26.144 C 305.857 26.826,306.175 27.617,306.390 27.901 C 306.839 28.493,307.591 30.306,307.934 31.621 C 308.062 32.116,308.384 32.798,308.649 33.136 C 308.914 33.474,309.292 34.275,309.490 34.917 C 309.688 35.558,310.031 36.383,310.254 36.750 C 310.858 37.747,311.172 38.499,311.333 39.333 C 311.412 39.746,311.546 40.267,311.630 40.492 L 311.782 40.900 312.092 40.427 C 312.525 39.765,312.641 37.588,312.655 29.817 L 312.667 23.383 313.162 22.699 C 313.842 21.761,314.519 21.583,317.424 21.583 C 320.082 21.583,320.333 21.671,321.125 22.866 L 321.583 23.558 321.675 28.904 C 321.752 33.382,321.813 34.368,322.050 34.979 C 322.467 36.053,322.487 65.220,322.072 66.023 C 321.222 67.665,314.770 67.836,314.160 66.233 C 314.073 66.005,313.777 65.577,313.501 65.284 C 312.910 64.654,312.407 63.645,312.240 62.754 C 312.099 62.002,311.876 61.541,311.415 61.048 C 311.230 60.851,310.789 59.990,310.435 59.136 C 310.080 58.282,309.580 57.200,309.323 56.731 C 309.066 56.262,308.728 55.437,308.571 54.897 C 308.390 54.273,308.055 53.653,307.648 53.190 C 307.202 52.683,306.871 52.040,306.553 51.065 C 306.066 49.569,305.791 49.351,305.138 49.942 C 304.759 50.285,304.753 50.749,305.114 51.687 C 305.576 52.891,305.556 65.567,305.091 66.179 C 303.827 67.841,296.918 67.704,296.046 65.999 C 295.876 65.667,295.842 61.340,295.875 44.500 L 295.917 23.417 296.286 22.823 C 296.921 21.802,297.794 21.542,300.671 21.517 C 302.101 21.504,302.681 21.562,302.937 21.742 M341.261 21.672 C 342.365 21.865,342.910 22.068,345.083 23.096 C 345.908 23.486,346.796 24.037,347.056 24.320 C 347.316 24.602,347.612 24.833,347.715 24.833 C 347.967 24.833,349.000 25.849,349.000 26.098 C 349.000 26.207,349.410 26.713,349.911 27.223 C 350.412 27.732,350.872 28.347,350.933 28.589 C 350.994 28.832,351.221 29.342,351.439 29.723 C 352.591 31.746,352.492 30.405,352.496 44.104 C 352.500 56.970,352.484 57.299,351.808 58.114 C 351.705 58.238,351.310 59.032,350.931 59.877 C 350.422 61.014,350.106 61.502,349.717 61.749 C 349.428 61.933,349.150 62.240,349.099 62.432 C 349.048 62.624,348.611 63.136,348.128 63.568 C 347.645 64.001,347.134 64.460,346.993 64.587 C 346.852 64.714,346.437 64.953,346.071 65.118 C 345.705 65.282,345.065 65.696,344.649 66.038 C 343.269 67.170,342.729 67.236,334.750 67.243 C 327.049 67.251,326.861 67.227,326.094 66.132 C 325.822 65.744,325.676 24.830,325.941 23.502 C 326.092 22.746,326.968 21.927,327.852 21.715 C 328.827 21.482,339.962 21.446,341.261 21.672 M370.422 21.809 C 371.043 22.188,371.372 22.965,371.738 24.917 C 371.892 25.742,372.164 26.722,372.343 27.094 C 372.783 28.015,372.955 29.153,373.078 31.971 C 373.172 34.107,373.245 34.544,373.777 36.137 C 374.701 38.900,374.823 39.549,374.993 42.597 C 375.171 45.778,375.333 46.703,375.924 47.917 C 376.147 48.375,376.374 49.125,376.428 49.583 C 376.482 50.042,376.629 50.942,376.753 51.583 C 376.878 52.225,377.024 53.565,377.080 54.560 C 377.153 55.890,377.336 56.931,377.768 58.477 C 379.173 63.508,379.152 66.733,377.714 67.114 C 376.632 67.400,371.280 67.268,370.742 66.942 C 370.228 66.631,369.500 65.327,369.500 64.717 C 369.500 63.590,368.009 63.000,365.157 63.000 L 362.835 63.000 362.334 63.692 C 362.059 64.072,361.833 64.563,361.833 64.783 C 361.833 66.634,359.846 67.463,355.828 67.286 C 352.054 67.120,351.002 65.454,352.677 62.297 C 353.024 61.644,353.201 60.435,353.323 57.882 C 353.422 55.823,353.518 55.080,353.727 54.762 C 353.877 54.533,354.000 54.202,354.000 54.026 C 354.000 53.721,354.259 52.993,354.751 51.912 C 355.053 51.249,355.330 49.502,355.332 48.257 C 355.334 46.755,355.809 43.015,356.106 42.167 C 356.250 41.754,356.549 40.952,356.769 40.385 C 357.074 39.599,357.208 38.804,357.330 37.052 C 357.509 34.470,357.818 32.664,358.210 31.910 C 358.550 31.253,358.766 30.014,359.092 26.833 C 359.630 21.596,359.708 21.538,366.167 21.515 C 369.536 21.503,369.968 21.533,370.422 21.809 M220.145 31.110 C 219.388 31.929,219.333 32.182,219.333 34.895 C 219.333 38.866,219.637 39.333,222.214 39.333 C 223.560 39.333,223.947 39.276,224.308 39.021 C 224.551 38.849,225.144 38.540,225.625 38.334 C 226.106 38.127,226.500 37.906,226.500 37.841 C 226.500 37.776,226.698 37.617,226.940 37.488 C 227.899 36.974,228.249 34.988,227.633 33.548 C 227.021 32.115,224.673 31.047,221.417 30.720 C 220.662 30.644,220.542 30.681,220.145 31.110 M336.300 31.039 C 335.307 31.872,335.333 31.495,335.333 45.077 L 335.333 57.498 336.028 58.001 C 336.788 58.552,336.998 58.555,338.833 58.044 C 339.710 57.800,341.105 57.138,341.780 56.647 C 342.079 56.430,342.716 54.647,343.262 52.500 C 343.445 51.780,343.495 49.914,343.497 43.823 L 343.500 36.062 343.083 35.199 C 342.854 34.724,342.667 34.232,342.667 34.105 C 342.667 33.142,341.766 31.797,341.000 31.618 C 340.771 31.565,340.058 31.355,339.417 31.153 C 337.689 30.608,336.851 30.577,336.300 31.039 M72.371 34.421 C 71.617 35.130,71.000 35.817,71.000 35.948 C 71.000 36.264,71.972 38.213,72.200 38.354 C 72.465 38.518,75.121 41.130,75.369 41.471 C 75.487 41.633,75.859 41.972,76.196 42.226 C 77.083 42.894,77.475 44.446,76.987 45.357 C 76.854 45.606,71.779 50.731,68.346 54.083 C 68.027 54.394,66.464 55.962,66.273 56.161 C 65.265 57.214,62.897 59.500,62.813 59.500 C 62.755 59.500,62.395 59.913,62.015 60.417 C 61.634 60.921,61.231 61.333,61.119 61.333 C 61.007 61.333,60.690 61.605,60.416 61.936 C 59.896 62.564,58.334 63.708,57.742 63.894 C 57.216 64.059,55.620 62.837,53.376 60.550 C 50.182 57.294,49.792 57.073,48.797 57.962 C 46.577 59.945,46.648 59.852,46.553 60.923 L 46.464 61.917 49.024 64.455 C 57.622 72.984,57.029 72.488,58.197 72.138 C 58.766 71.967,59.709 71.121,63.539 67.340 C 66.097 64.816,68.428 62.525,68.720 62.250 C 69.011 61.975,69.858 61.112,70.600 60.333 C 71.343 59.554,72.955 57.942,74.184 56.750 C 75.412 55.558,76.567 54.371,76.750 54.112 C 76.933 53.853,77.365 53.495,77.708 53.317 C 78.052 53.139,78.333 52.919,78.333 52.829 C 78.333 52.706,82.147 48.831,83.660 47.417 C 86.805 44.476,86.749 44.212,82.005 39.547 C 80.191 37.763,78.611 36.125,78.494 35.905 C 78.376 35.685,78.132 35.458,77.950 35.401 C 77.769 35.343,77.182 34.841,76.645 34.284 C 75.705 33.309,75.635 33.269,74.706 33.202 L 73.743 33.132 72.371 34.421 M57.167 34.124 C 56.702 34.306,54.918 35.568,54.761 35.827 C 54.596 36.098,52.852 37.953,52.193 38.558 C 46.985 43.336,46.559 44.198,48.417 46.204 C 49.012 46.847,49.500 47.440,49.500 47.520 C 49.500 47.601,49.580 47.667,49.677 47.667 C 49.827 47.667,53.836 51.623,54.935 52.856 C 55.129 53.072,55.641 53.475,56.074 53.750 C 57.580 54.707,57.534 54.695,57.998 54.270 C 58.228 54.059,58.679 53.709,59.000 53.493 C 59.321 53.276,59.871 52.776,60.222 52.382 C 60.574 51.989,60.949 51.663,61.056 51.660 C 61.163 51.656,61.438 51.417,61.667 51.130 C 61.896 50.843,62.308 50.394,62.583 50.132 C 62.858 49.870,63.158 49.580,63.250 49.488 C 68.833 43.873,68.777 44.611,63.976 39.839 C 62.267 38.140,60.723 36.630,60.544 36.483 C 60.366 36.336,60.114 36.067,59.985 35.887 C 59.748 35.555,57.678 33.989,57.508 34.013 C 57.458 34.020,57.304 34.070,57.167 34.124 M366.042 43.514 C 365.835 43.765,365.667 44.042,365.667 44.131 C 365.667 44.220,365.564 44.378,365.438 44.482 C 365.312 44.587,365.171 45.013,365.124 45.431 C 365.077 45.848,364.795 46.669,364.498 47.255 C 363.755 48.719,363.484 52.863,364.069 53.810 C 364.201 54.024,365.247 54.160,365.917 54.051 C 367.066 53.865,367.272 53.187,366.943 50.678 C 366.791 49.517,366.658 47.782,366.647 46.825 C 366.636 45.867,366.580 44.628,366.522 44.071 L 366.417 43.059 366.042 43.514 M193.708 44.917 C 193.326 45.270,193.167 45.566,193.167 45.923 C 193.167 46.645,192.709 48.307,192.345 48.907 C 191.724 49.932,191.459 52.520,191.857 53.664 L 192.048 54.210 193.482 54.123 C 194.271 54.074,195.046 53.982,195.204 53.918 C 195.828 53.664,195.793 51.544,195.144 50.202 C 194.876 49.650,194.737 48.938,194.634 47.596 C 194.555 46.581,194.437 45.450,194.371 45.083 L 194.250 44.417 193.708 44.917 " stroke="none" fill="#f3fafb" fill-rule="evenodd"></path><path id="path2" d="M56.570 7.094 C 56.177 7.288,53.476 9.841,51.917 11.492 C 51.825 11.589,47.850 15.531,43.083 20.252 C 18.932 44.172,19.833 43.233,19.833 44.483 C 19.833 45.166,21.173 46.719,24.562 49.965 C 24.918 50.305,27.260 52.608,29.769 55.083 C 32.277 57.558,34.446 59.696,34.589 59.833 C 34.732 59.971,35.471 60.721,36.232 61.500 C 36.992 62.279,38.320 63.602,39.182 64.441 C 40.045 65.279,41.017 66.254,41.344 66.607 C 41.670 66.961,44.145 69.414,46.844 72.059 C 49.542 74.704,51.825 76.945,51.917 77.040 C 57.569 82.881,57.269 82.835,61.645 78.529 C 65.734 74.507,68.963 71.302,70.277 69.965 C 70.934 69.297,72.171 68.069,73.027 67.237 C 73.883 66.405,74.776 65.505,75.012 65.237 C 75.248 64.969,76.448 63.772,77.679 62.576 C 78.910 61.380,80.179 60.125,80.500 59.788 C 81.126 59.129,87.965 52.368,90.012 50.384 C 95.319 45.242,95.638 44.822,95.170 43.593 C 95.049 43.275,89.600 37.724,86.417 34.675 C 85.541 33.837,81.144 29.429,80.018 28.261 C 79.229 27.443,78.261 26.472,77.867 26.103 C 77.473 25.735,73.086 21.391,68.117 16.449 C 58.064 6.450,57.993 6.392,56.570 7.094 M59.070 16.925 C 59.352 17.145,59.838 17.589,60.148 17.912 C 60.459 18.236,60.807 18.500,60.921 18.500 C 61.035 18.500,61.263 18.706,61.428 18.958 C 61.592 19.210,62.857 20.520,64.239 21.869 C 65.620 23.217,66.862 24.443,67.000 24.593 C 67.137 24.743,67.682 25.289,68.209 25.808 C 69.527 27.103,69.474 28.589,68.083 29.333 C 67.848 29.459,67.502 29.811,67.314 30.115 C 66.338 31.694,65.098 31.222,61.895 28.053 C 57.839 24.039,57.169 23.907,54.760 26.639 C 54.241 27.227,51.901 29.580,50.321 31.103 C 49.548 31.847,48.757 32.634,48.562 32.853 C 48.366 33.071,47.091 34.357,45.728 35.710 C 44.365 37.063,43.175 38.246,43.083 38.340 C 42.992 38.434,41.965 39.436,40.802 40.568 C 37.035 44.233,37.035 44.233,40.625 47.809 C 44.867 52.034,44.994 52.321,43.350 53.970 C 40.912 56.415,40.963 56.432,35.964 51.509 C 34.982 50.541,34.082 49.656,33.964 49.542 C 28.288 44.038,28.254 44.734,34.492 38.563 C 36.890 36.191,39.354 33.736,39.968 33.107 C 40.581 32.479,41.371 31.692,41.723 31.357 C 42.074 31.023,44.474 28.663,47.056 26.113 C 52.562 20.674,51.601 21.628,54.205 19.011 C 57.027 16.174,57.721 15.877,59.070 16.925 M76.645 34.284 C 77.182 34.841,77.769 35.343,77.950 35.401 C 78.132 35.458,78.376 35.685,78.494 35.905 C 78.611 36.125,80.191 37.763,82.005 39.547 C 86.749 44.212,86.805 44.476,83.660 47.417 C 82.147 48.831,78.333 52.706,78.333 52.829 C 78.333 52.919,78.052 53.139,77.708 53.317 C 77.365 53.495,76.933 53.853,76.750 54.112 C 76.567 54.371,75.412 55.558,74.184 56.750 C 72.955 57.942,71.343 59.554,70.600 60.333 C 69.858 61.112,69.011 61.975,68.720 62.250 C 68.428 62.525,66.097 64.816,63.539 67.340 C 57.327 73.472,57.978 73.332,54.000 69.389 C 52.671 68.072,50.432 65.852,49.024 64.455 L 46.464 61.917 46.553 60.923 C 46.648 59.852,46.577 59.945,48.797 57.962 C 49.792 57.073,50.182 57.294,53.376 60.550 C 55.620 62.837,57.216 64.059,57.742 63.894 C 58.334 63.708,59.896 62.564,60.416 61.936 C 60.690 61.605,61.007 61.333,61.119 61.333 C 61.231 61.333,61.634 60.921,62.015 60.417 C 62.395 59.913,62.755 59.500,62.813 59.500 C 62.897 59.500,65.265 57.214,66.273 56.161 C 66.464 55.962,68.027 54.394,68.346 54.083 C 71.779 50.731,76.854 45.606,76.987 45.357 C 77.475 44.446,77.083 42.894,76.196 42.226 C 75.859 41.972,75.487 41.633,75.369 41.471 C 75.121 41.130,72.465 38.518,72.200 38.354 C 71.972 38.213,71.000 36.264,71.000 35.948 C 71.000 35.817,71.617 35.130,72.371 34.421 L 73.743 33.132 74.706 33.202 C 75.635 33.269,75.705 33.309,76.645 34.284 M58.675 34.779 C 59.266 35.207,59.856 35.706,59.985 35.887 C 60.114 36.067,60.366 36.336,60.544 36.483 C 60.723 36.630,62.267 38.140,63.976 39.839 C 68.777 44.611,68.833 43.873,63.250 49.488 C 63.158 49.580,62.858 49.870,62.583 50.132 C 62.308 50.394,61.896 50.843,61.667 51.130 C 61.438 51.417,61.163 51.656,61.056 51.660 C 60.949 51.663,60.574 51.989,60.222 52.382 C 59.871 52.776,59.321 53.276,59.000 53.493 C 58.679 53.709,58.228 54.059,57.998 54.270 C 57.534 54.695,57.580 54.707,56.074 53.750 C 55.641 53.475,55.129 53.072,54.935 52.856 C 53.836 51.623,49.827 47.667,49.677 47.667 C 49.580 47.667,49.500 47.601,49.500 47.520 C 49.500 47.440,49.012 46.847,48.417 46.204 C 46.559 44.198,46.985 43.336,52.193 38.558 C 52.852 37.953,54.596 36.098,54.761 35.827 C 54.996 35.440,57.060 34.078,57.508 34.013 C 57.559 34.006,58.084 34.351,58.675 34.779 " stroke="none" fill="#f79194" fill-rule="evenodd"></path><path id="path3" d="M127.155 7.009 C 126.701 7.281,126.515 7.537,126.364 8.101 C 126.046 9.288,126.082 80.021,126.401 80.633 C 127.265 82.295,129.421 82.408,130.208 80.833 C 130.505 80.240,130.648 9.275,130.355 7.934 C 130.117 6.844,128.309 6.321,127.155 7.009 M128.619 7.270 C 129.756 7.575,129.667 4.404,129.667 44.439 L 129.667 80.359 129.179 80.846 C 128.575 81.450,128.105 81.464,127.575 80.892 L 127.167 80.451 127.167 44.496 C 127.167 13.182,127.198 8.465,127.413 7.952 C 127.714 7.230,127.958 7.093,128.619 7.270 M157.000 21.683 C 155.302 22.016,154.967 22.856,155.038 26.591 C 155.114 30.538,155.108 30.535,162.258 30.660 C 168.452 30.768,168.439 30.764,168.283 32.272 C 168.213 32.946,167.994 33.500,167.415 34.462 C 166.988 35.171,166.514 36.145,166.361 36.628 C 166.208 37.111,165.783 37.876,165.415 38.328 C 165.047 38.781,164.497 39.788,164.189 40.575 C 163.883 41.359,163.570 42.000,163.496 42.000 C 163.260 42.000,162.719 43.052,162.510 43.917 C 162.399 44.375,162.108 45.011,161.862 45.330 C 161.365 45.978,160.334 47.972,160.333 48.286 C 160.333 48.397,160.185 48.568,160.004 48.664 C 159.823 48.761,159.204 49.788,158.629 50.946 C 158.054 52.104,157.494 53.209,157.385 53.402 C 157.276 53.595,157.090 54.128,156.971 54.585 C 156.853 55.042,156.707 55.454,156.648 55.500 C 155.156 56.656,154.333 59.288,154.333 62.906 C 154.333 65.857,154.468 66.374,155.378 66.924 C 156.168 67.402,179.242 67.436,180.111 66.961 C 180.612 66.687,180.672 66.687,181.278 66.961 C 182.191 67.373,187.815 67.368,188.603 66.954 C 189.255 66.611,189.667 65.761,189.667 64.759 C 189.667 63.208,190.317 62.940,193.874 63.024 C 197.251 63.104,198.000 63.501,198.000 65.214 C 198.000 66.396,198.543 67.047,199.672 67.220 C 201.379 67.481,205.610 67.269,206.016 66.903 C 206.574 66.398,206.873 65.682,206.769 65.105 C 206.717 64.818,206.560 63.211,206.421 61.533 C 206.248 59.455,206.036 58.018,205.757 57.023 C 205.295 55.383,204.833 52.905,204.833 52.072 C 204.833 51.043,203.987 46.591,203.505 45.083 C 203.154 43.983,202.999 43.094,202.923 41.747 C 202.758 38.793,202.191 35.780,201.371 33.500 C 201.130 32.830,201.012 31.933,200.932 30.167 C 200.809 27.462,200.578 26.169,199.888 24.322 C 198.845 21.532,198.781 21.501,194.083 21.502 C 187.774 21.502,187.446 21.875,186.834 29.750 C 186.637 32.290,186.467 33.105,185.889 34.290 C 185.385 35.322,185.042 37.114,184.907 39.417 C 184.853 40.333,184.712 41.421,184.592 41.833 C 184.473 42.246,184.244 43.146,184.083 43.833 C 183.923 44.521,183.722 45.308,183.637 45.583 C 183.552 45.858,183.372 47.583,183.236 49.417 C 183.007 52.525,182.956 52.820,182.488 53.784 C 181.599 55.618,181.513 56.054,180.996 61.401 C 180.908 62.310,180.798 63.091,180.751 63.137 C 180.549 63.340,180.459 62.913,180.357 61.277 C 180.181 58.438,180.362 58.500,172.249 58.500 C 168.475 58.500,166.194 58.437,165.989 58.327 C 165.517 58.075,165.581 57.335,166.125 56.739 C 166.777 56.024,167.070 55.534,167.415 54.583 C 167.581 54.125,167.917 53.487,168.161 53.167 C 168.658 52.514,169.167 51.331,169.167 50.830 C 169.167 50.648,169.234 50.500,169.317 50.500 C 169.563 50.500,170.605 48.814,170.902 47.938 C 171.259 46.883,171.401 46.629,172.001 45.972 C 172.275 45.672,172.500 45.330,172.500 45.213 C 172.500 44.889,173.506 42.817,173.949 42.229 C 174.164 41.943,174.501 41.230,174.696 40.646 C 174.891 40.061,175.264 39.310,175.525 38.976 C 175.786 38.642,176.000 38.295,176.000 38.205 C 176.000 38.115,176.100 37.958,176.222 37.857 C 176.344 37.755,176.584 37.240,176.755 36.711 C 176.938 36.143,177.279 35.542,177.588 35.243 C 177.887 34.952,178.317 34.205,178.595 33.493 C 178.862 32.809,179.318 31.853,179.609 31.367 C 180.689 29.564,180.589 22.968,179.468 22.044 C 178.838 21.525,159.403 21.213,157.000 21.683 M211.746 21.725 C 209.634 22.330,209.770 21.426,209.625 35.826 C 209.555 42.659,209.457 52.071,209.406 56.742 C 209.283 68.058,208.906 67.242,214.250 67.247 C 219.676 67.252,219.328 67.922,219.331 57.476 L 219.333 49.368 219.922 48.851 C 221.378 47.572,225.974 49.192,226.443 51.149 C 226.500 51.388,226.705 51.883,226.899 52.250 C 227.234 52.887,227.254 53.213,227.333 59.471 L 227.417 66.026 228.023 66.581 C 228.778 67.273,229.859 67.421,233.192 67.289 C 236.820 67.146,236.668 67.479,236.663 59.647 C 236.658 51.970,236.317 48.167,235.634 48.167 C 235.206 48.167,233.984 44.972,234.182 44.371 C 234.504 43.393,235.155 42.191,235.695 41.576 C 236.553 40.599,237.382 37.086,237.286 34.835 C 237.154 31.749,236.222 29.071,234.531 26.917 C 234.459 26.825,234.353 26.627,234.295 26.476 C 234.238 26.325,233.908 25.988,233.562 25.726 C 233.216 25.464,232.629 24.962,232.258 24.610 C 231.887 24.259,231.246 23.820,230.833 23.636 C 230.421 23.452,229.408 22.975,228.583 22.577 C 227.423 22.018,226.764 21.814,225.671 21.677 C 223.738 21.435,212.625 21.473,211.746 21.725 M248.195 21.690 C 246.931 22.054,243.443 24.779,242.583 26.073 C 242.308 26.487,242.029 26.828,241.962 26.830 C 241.805 26.834,241.167 28.082,241.167 28.385 C 241.167 28.512,240.960 28.909,240.707 29.267 C 239.431 31.071,239.333 32.158,239.333 44.519 C 239.333 57.526,239.320 57.384,240.818 60.167 C 240.990 60.487,241.217 61.068,241.322 61.456 C 241.455 61.952,241.832 62.496,242.589 63.288 C 243.182 63.907,243.667 64.464,243.667 64.525 C 243.667 64.587,243.985 64.792,244.375 64.982 C 244.765 65.172,245.233 65.555,245.417 65.834 C 245.771 66.373,247.163 67.167,247.753 67.167 C 248.190 67.167,249.595 67.606,250.196 67.930 C 251.343 68.549,254.063 68.540,255.333 67.913 C 255.563 67.799,256.361 67.553,257.107 67.366 C 258.713 66.963,259.677 66.502,260.137 65.916 C 260.322 65.682,260.847 65.286,261.304 65.037 C 262.554 64.355,264.364 61.964,264.666 60.595 C 264.766 60.144,265.067 59.477,265.334 59.113 C 265.616 58.729,265.896 58.060,266.002 57.518 C 266.102 57.004,266.255 56.221,266.342 55.779 C 266.429 55.337,266.500 52.706,266.500 49.933 L 266.500 44.890 266.003 44.140 C 265.203 42.932,265.228 42.937,259.388 42.867 C 252.125 42.780,252.417 42.564,252.417 48.050 L 252.417 51.361 252.944 51.832 C 253.371 52.213,253.692 52.326,254.611 52.419 C 256.483 52.609,256.557 52.704,256.414 54.723 C 256.250 57.048,256.037 57.429,254.424 58.274 C 252.790 59.131,250.411 58.465,249.733 56.962 C 249.432 56.294,249.417 55.692,249.417 44.505 L 249.417 32.750 249.805 32.125 C 250.019 31.781,250.249 31.500,250.317 31.500 C 250.384 31.500,250.734 31.232,251.095 30.905 C 252.309 29.801,253.327 29.683,254.216 30.542 C 254.525 30.840,255.080 31.361,255.450 31.701 C 256.192 32.383,256.256 32.582,256.430 34.754 C 256.709 38.229,257.651 38.918,261.963 38.803 C 265.051 38.720,265.382 38.608,265.982 37.439 C 266.856 35.737,266.398 30.893,265.248 29.667 C 265.033 29.438,264.804 29.025,264.738 28.750 C 264.422 27.416,261.360 23.507,260.627 23.501 C 260.559 23.500,259.959 23.145,259.293 22.712 C 258.628 22.278,257.783 21.829,257.417 21.714 C 256.613 21.462,249.055 21.442,248.195 21.690 M271.298 21.650 C 269.155 21.960,269.284 20.518,269.214 44.970 L 269.154 65.858 269.505 66.426 C 270.083 67.361,270.134 67.365,280.750 67.305 C 293.266 67.234,292.250 67.631,292.250 62.806 L 292.250 59.648 291.833 59.330 C 290.966 58.669,289.484 58.500,284.534 58.500 L 279.883 58.500 279.192 57.999 L 278.500 57.498 278.500 53.505 L 278.500 49.512 279.122 49.089 L 279.744 48.667 284.278 48.667 C 292.342 48.667,292.397 48.634,292.303 43.828 C 292.217 39.406,292.303 39.459,285.028 39.337 L 279.805 39.250 279.330 38.717 C 278.656 37.963,278.502 37.221,278.501 34.720 C 278.500 31.350,278.324 31.443,284.909 31.333 C 292.103 31.214,292.456 30.936,292.308 25.525 C 292.235 22.881,291.951 22.222,290.705 21.807 C 290.018 21.578,272.760 21.439,271.298 21.650 M298.083 21.684 C 297.100 21.906,296.698 22.161,296.286 22.823 L 295.917 23.417 295.875 44.500 C 295.842 61.340,295.876 65.667,296.046 65.999 C 296.918 67.704,303.827 67.841,305.091 66.179 C 305.556 65.567,305.576 52.891,305.114 51.687 C 304.753 50.749,304.759 50.285,305.138 49.942 C 305.791 49.351,306.066 49.569,306.553 51.065 C 306.871 52.040,307.202 52.683,307.648 53.190 C 308.055 53.653,308.390 54.273,308.571 54.897 C 308.728 55.437,309.066 56.262,309.323 56.731 C 309.580 57.200,310.080 58.282,310.435 59.136 C 310.789 59.990,311.230 60.851,311.415 61.048 C 311.876 61.541,312.099 62.002,312.240 62.754 C 312.407 63.645,312.910 64.654,313.501 65.284 C 313.777 65.577,314.073 66.005,314.160 66.233 C 314.770 67.836,321.222 67.665,322.072 66.023 C 322.487 65.220,322.467 36.053,322.050 34.979 C 321.813 34.368,321.752 33.382,321.675 28.904 L 321.583 23.558 321.125 22.866 C 320.333 21.671,320.082 21.583,317.424 21.583 C 314.519 21.583,313.842 21.761,313.162 22.699 L 312.667 23.383 312.655 29.817 C 312.641 37.588,312.525 39.765,312.092 40.427 L 311.782 40.900 311.630 40.492 C 311.546 40.267,311.412 39.746,311.333 39.333 C 311.172 38.499,310.858 37.747,310.254 36.750 C 310.031 36.383,309.688 35.558,309.490 34.917 C 309.292 34.275,308.914 33.474,308.649 33.136 C 308.384 32.798,308.062 32.116,307.934 31.621 C 307.591 30.306,306.839 28.493,306.390 27.901 C 306.175 27.617,305.857 26.826,305.682 26.144 C 305.358 24.875,303.766 22.322,302.937 21.742 C 302.542 21.464,299.229 21.425,298.083 21.684 M327.852 21.715 C 326.968 21.927,326.092 22.746,325.941 23.502 C 325.676 24.830,325.822 65.744,326.094 66.132 C 326.861 67.227,327.049 67.251,334.750 67.243 C 342.729 67.236,343.269 67.170,344.649 66.038 C 345.065 65.696,345.705 65.282,346.071 65.118 C 346.437 64.953,346.852 64.714,346.993 64.587 C 347.134 64.460,347.645 64.001,348.128 63.568 C 348.611 63.136,349.048 62.624,349.099 62.432 C 349.150 62.240,349.428 61.933,349.717 61.749 C 350.106 61.502,350.422 61.014,350.931 59.877 C 351.310 59.032,351.705 58.238,351.808 58.114 C 352.484 57.299,352.500 56.970,352.496 44.104 C 352.492 30.405,352.591 31.746,351.439 29.723 C 351.221 29.342,350.994 28.832,350.933 28.589 C 350.872 28.347,350.412 27.732,349.911 27.223 C 349.410 26.713,349.000 26.207,349.000 26.098 C 349.000 25.849,347.967 24.833,347.715 24.833 C 347.612 24.833,347.316 24.602,347.056 24.320 C 346.796 24.037,345.908 23.486,345.083 23.096 C 342.910 22.068,342.365 21.865,341.261 21.672 C 339.962 21.446,328.827 21.482,327.852 21.715 M361.505 21.749 C 359.795 22.162,359.511 22.762,359.092 26.833 C 358.766 30.014,358.550 31.253,358.210 31.910 C 357.818 32.664,357.509 34.470,357.330 37.052 C 357.208 38.804,357.074 39.599,356.769 40.385 C 356.549 40.952,356.250 41.754,356.106 42.167 C 355.809 43.015,355.334 46.755,355.332 48.257 C 355.330 49.502,355.053 51.249,354.751 51.912 C 354.259 52.993,354.000 53.721,354.000 54.026 C 354.000 54.202,353.877 54.533,353.727 54.762 C 353.518 55.080,353.422 55.823,353.323 57.882 C 353.201 60.435,353.024 61.644,352.677 62.297 C 351.002 65.454,352.054 67.120,355.828 67.286 C 359.846 67.463,361.833 66.634,361.833 64.783 C 361.833 64.563,362.059 64.072,362.334 63.692 L 362.835 63.000 365.157 63.000 C 368.009 63.000,369.500 63.590,369.500 64.717 C 369.500 65.327,370.228 66.631,370.742 66.942 C 371.280 67.268,376.632 67.400,377.714 67.114 C 379.152 66.733,379.173 63.508,377.768 58.477 C 377.336 56.931,377.153 55.890,377.080 54.560 C 377.024 53.565,376.878 52.225,376.753 51.583 C 376.629 50.942,376.482 50.042,376.428 49.583 C 376.374 49.125,376.147 48.375,375.924 47.917 C 375.333 46.703,375.171 45.778,374.993 42.597 C 374.823 39.549,374.701 38.900,373.777 36.137 C 373.245 34.544,373.172 34.107,373.078 31.971 C 372.955 29.153,372.783 28.015,372.343 27.094 C 372.164 26.722,371.892 25.742,371.738 24.917 C 371.096 21.491,371.106 21.497,366.167 21.515 C 363.673 21.524,362.111 21.602,361.505 21.749 M256.446 22.168 C 258.252 22.813,261.493 24.978,262.180 26.000 C 262.396 26.321,262.890 26.996,263.277 27.500 C 264.390 28.948,265.667 33.061,265.666 35.191 C 265.664 37.308,264.779 37.825,261.150 37.831 C 258.582 37.835,257.652 37.111,257.450 34.953 C 257.395 34.363,257.242 33.626,257.109 33.315 C 256.976 33.004,256.736 32.433,256.577 32.046 C 255.153 28.591,250.711 28.749,248.954 32.317 L 248.417 33.409 248.362 43.413 C 248.333 48.915,248.357 54.098,248.418 54.931 C 248.692 58.734,251.435 60.263,255.363 58.802 C 256.562 58.356,257.911 54.556,257.419 53.008 C 257.237 52.433,256.044 51.877,254.720 51.750 C 253.018 51.587,252.931 51.460,252.859 49.025 C 252.702 43.680,252.431 43.930,258.460 43.868 C 266.251 43.787,265.666 43.291,265.667 49.987 C 265.668 54.023,265.617 55.239,265.423 55.833 C 265.288 56.246,265.052 57.033,264.898 57.583 C 264.066 60.558,263.963 60.782,262.549 62.695 C 261.680 63.871,261.269 64.266,260.335 64.821 C 259.705 65.195,259.086 65.604,258.961 65.729 C 256.003 68.688,246.228 67.187,243.751 63.394 C 243.580 63.131,243.116 62.592,242.720 62.195 C 242.324 61.798,241.999 61.461,241.999 61.445 C 241.998 61.429,241.731 60.667,241.406 59.750 C 240.063 55.970,240.167 57.231,240.167 44.681 L 240.167 33.438 241.009 30.807 C 242.274 26.852,244.256 24.619,248.319 22.572 C 249.736 21.857,254.861 21.603,256.446 22.168 M178.420 22.596 C 179.987 23.340,180.196 28.860,178.748 31.265 C 178.424 31.803,178.078 32.545,177.979 32.913 C 177.880 33.282,177.544 33.932,177.231 34.358 C 176.919 34.784,176.485 35.534,176.267 36.024 C 176.049 36.515,175.602 37.305,175.275 37.779 C 174.947 38.253,174.520 39.115,174.325 39.695 C 174.131 40.275,173.684 41.125,173.333 41.583 C 172.982 42.042,172.534 42.898,172.336 43.486 C 172.139 44.074,171.767 44.862,171.509 45.237 C 171.252 45.611,170.805 46.405,170.517 47.000 C 170.229 47.596,169.730 48.496,169.409 49.000 C 169.087 49.504,168.751 50.188,168.662 50.519 C 168.573 50.850,168.315 51.392,168.090 51.724 C 167.388 52.759,166.859 53.785,166.674 54.474 C 166.576 54.838,166.203 55.490,165.846 55.922 C 164.882 57.088,164.723 58.728,165.555 58.915 C 165.754 58.959,168.767 59.016,172.250 59.040 C 178.295 59.081,178.610 59.099,179.167 59.425 L 179.750 59.768 179.868 61.425 C 179.933 62.337,180.092 63.624,180.222 64.284 C 180.711 66.771,181.263 66.667,167.630 66.666 C 153.851 66.664,155.014 66.988,155.005 63.156 C 154.997 59.734,155.334 58.419,156.594 56.944 C 156.901 56.584,157.224 55.955,157.332 55.507 C 157.437 55.069,157.894 54.082,158.349 53.314 C 158.803 52.545,159.221 51.729,159.278 51.500 C 159.423 50.910,159.819 50.142,160.185 49.741 C 160.357 49.552,160.731 48.915,161.016 48.324 C 161.302 47.733,161.782 46.913,162.083 46.500 C 162.384 46.087,162.790 45.229,162.986 44.593 C 163.188 43.936,163.617 43.071,163.977 42.593 C 164.326 42.129,164.778 41.302,164.981 40.755 C 165.184 40.207,165.533 39.520,165.756 39.227 C 165.980 38.934,166.425 38.144,166.747 37.472 C 167.068 36.800,167.480 36.025,167.663 35.750 C 168.576 34.377,169.667 31.673,169.667 30.782 C 169.667 29.789,170.126 29.860,163.167 29.780 C 155.495 29.692,155.833 29.859,155.833 26.158 C 155.833 23.573,156.017 23.001,156.971 22.605 C 157.910 22.215,177.600 22.207,178.420 22.596 M198.110 22.708 C 198.293 22.915,198.794 24.135,199.222 25.420 C 200.018 27.812,200.190 28.751,200.756 33.833 C 200.915 35.254,201.138 36.649,201.253 36.933 C 201.608 37.812,201.981 39.687,202.331 42.356 C 202.940 46.995,203.293 48.875,203.803 50.182 C 203.896 50.420,204.055 51.508,204.156 52.599 C 204.331 54.486,204.630 56.224,205.354 59.583 C 206.826 66.405,206.712 66.667,202.272 66.667 C 199.150 66.667,198.500 66.386,198.500 65.041 C 198.500 62.671,197.378 62.017,193.289 62.006 C 189.889 61.996,189.335 62.347,189.081 64.667 C 188.960 65.780,188.790 66.021,187.872 66.385 C 186.886 66.775,182.823 66.789,182.083 66.405 C 181.145 65.917,180.836 65.515,181.021 65.027 C 181.112 64.788,181.373 63.352,181.599 61.837 C 182.078 58.646,182.502 56.627,182.968 55.333 C 183.174 54.759,183.404 53.329,183.583 51.500 C 183.752 49.774,184.041 47.937,184.291 47.000 C 184.524 46.129,184.770 45.004,184.839 44.500 C 184.908 43.996,185.044 43.246,185.142 42.833 C 185.241 42.421,185.446 40.958,185.598 39.583 C 185.785 37.897,186.008 36.731,186.283 36.000 C 186.813 34.595,187.110 33.238,187.250 31.583 C 187.624 27.178,188.611 23.462,189.616 22.671 C 190.315 22.121,197.614 22.153,198.110 22.708 M227.667 23.140 C 228.721 23.538,229.796 23.944,230.056 24.041 C 230.316 24.139,230.616 24.301,230.723 24.401 C 230.830 24.501,231.292 24.881,231.750 25.244 C 233.356 26.518,233.872 27.138,234.748 28.846 C 234.838 29.022,234.963 29.167,235.026 29.167 C 235.801 29.167,236.400 32.413,236.286 36.000 C 236.184 39.179,235.995 39.958,235.046 41.113 C 234.682 41.555,234.037 42.601,233.612 43.438 L 232.839 44.959 233.586 46.097 C 233.997 46.722,234.333 47.318,234.333 47.421 C 234.333 47.524,234.644 48.202,235.024 48.929 C 236.192 51.164,236.787 64.529,235.785 66.017 L 235.404 66.583 232.577 66.631 C 229.355 66.685,229.210 66.665,228.618 66.073 L 228.184 65.639 228.134 59.028 L 228.083 52.417 227.483 51.356 C 226.517 49.651,225.045 48.260,224.024 48.088 C 221.957 47.739,220.571 47.703,219.750 47.974 C 218.305 48.452,218.351 48.142,218.341 57.516 C 218.334 65.075,218.313 65.633,218.036 65.884 C 216.787 67.015,211.445 67.011,210.396 65.879 L 210.000 65.451 210.001 57.601 C 210.002 50.617,210.039 49.505,210.334 47.527 C 210.639 45.490,210.667 44.434,210.668 34.943 C 210.669 23.683,210.671 23.657,211.603 22.838 L 212.198 22.316 218.974 22.366 L 225.750 22.417 227.667 23.140 M290.051 22.624 C 291.772 23.510,292.097 28.057,290.544 29.509 C 289.537 30.450,289.216 30.500,284.199 30.500 C 277.540 30.500,277.379 30.620,277.548 35.445 C 277.715 40.214,277.481 40.053,284.415 40.173 C 291.541 40.296,291.507 40.279,291.487 43.823 C 291.463 48.064,291.595 47.981,284.833 47.994 C 278.803 48.006,278.600 48.032,277.983 48.884 L 277.500 49.550 277.500 53.448 C 277.500 59.357,277.082 59.000,283.990 59.000 C 291.559 59.000,291.500 58.966,291.500 63.307 C 291.500 66.859,292.156 66.667,280.014 66.667 L 270.517 66.667 270.086 66.101 L 269.654 65.536 269.720 46.976 C 269.803 23.611,269.837 23.054,271.211 22.554 C 272.196 22.197,289.344 22.260,290.051 22.624 M303.075 22.891 C 303.309 23.197,303.500 23.516,303.501 23.599 C 303.501 23.682,303.801 24.200,304.168 24.750 C 304.832 25.747,305.020 26.187,305.592 28.083 C 305.758 28.633,305.989 29.198,306.107 29.339 C 306.379 29.666,307.084 31.257,307.535 32.566 C 307.727 33.125,308.069 33.875,308.293 34.232 C 308.518 34.589,308.842 35.302,309.015 35.816 C 309.187 36.330,309.660 37.425,310.066 38.250 C 310.471 39.075,310.979 40.313,311.194 41.000 L 311.586 42.250 312.298 42.301 C 313.579 42.394,313.570 42.460,313.667 32.583 C 313.772 21.838,313.592 22.333,317.398 22.333 C 320.693 22.333,320.663 22.267,320.669 29.417 C 320.674 34.036,320.699 34.472,321.004 35.143 C 321.324 35.850,321.333 36.280,321.333 50.727 L 321.333 65.583 320.538 66.125 C 319.750 66.662,319.727 66.667,317.747 66.664 C 315.371 66.661,315.060 66.541,314.515 65.414 C 313.994 64.338,314.006 64.359,313.393 63.441 C 313.104 63.010,312.744 62.276,312.592 61.810 C 312.439 61.345,312.113 60.653,311.867 60.274 C 311.237 59.303,310.846 58.473,310.835 58.083 C 310.823 57.655,310.256 56.404,309.779 55.755 C 309.575 55.477,309.268 54.837,309.097 54.333 C 308.926 53.829,308.488 52.973,308.123 52.432 C 307.759 51.890,307.277 50.919,307.052 50.275 C 306.531 48.785,306.299 48.344,305.779 47.859 C 305.549 47.643,305.270 47.249,305.160 46.984 C 304.258 44.806,303.315 49.156,304.109 51.833 C 304.484 53.097,304.659 65.190,304.309 65.612 C 303.142 67.018,298.154 67.145,297.039 65.797 C 296.624 65.296,296.830 23.868,297.250 23.298 C 297.840 22.498,298.390 22.341,300.617 22.337 L 302.650 22.333 303.075 22.891 M341.917 22.766 C 342.558 22.996,343.692 23.392,344.437 23.646 C 346.497 24.349,349.474 27.070,350.202 28.917 C 350.347 29.283,350.754 30.183,351.108 30.917 L 351.750 32.250 351.750 44.167 L 351.750 56.083 350.768 58.367 C 349.808 60.601,349.225 61.496,348.000 62.617 C 346.540 63.954,345.428 64.833,345.198 64.833 C 345.061 64.833,344.467 65.103,343.878 65.432 C 341.777 66.607,341.326 66.667,334.536 66.667 C 328.093 66.667,327.725 66.623,327.027 65.783 C 326.623 65.295,326.840 23.852,327.250 23.307 C 327.988 22.326,327.869 22.342,334.583 22.345 C 340.745 22.347,340.751 22.348,341.917 22.766 M370.355 22.718 C 370.504 22.924,370.716 23.540,370.826 24.088 C 371.395 26.919,371.557 27.639,371.759 28.250 C 372.047 29.117,372.272 30.524,372.756 34.500 C 373.047 36.882,373.312 38.284,373.752 39.750 C 374.153 41.088,374.404 42.348,374.511 43.556 C 374.777 46.567,375.424 50.385,375.789 51.098 C 376.046 51.600,376.316 53.275,376.417 55.000 C 376.517 56.689,376.774 58.191,377.447 61.000 C 378.773 66.538,378.702 66.667,374.328 66.667 C 372.060 66.667,371.730 66.630,371.237 66.325 C 370.640 65.957,370.621 65.915,370.327 64.417 C 370.093 63.227,370.004 63.100,369.107 62.688 C 367.713 62.048,367.448 62.000,365.319 62.000 C 362.222 62.000,361.858 62.210,361.057 64.461 C 360.631 65.656,360.490 65.828,359.538 66.314 C 358.519 66.834,354.900 66.836,353.914 66.317 C 352.801 65.732,352.804 65.738,353.169 64.248 C 353.349 63.516,353.497 62.715,353.498 62.469 C 353.499 62.223,353.573 61.829,353.663 61.593 C 353.753 61.357,353.972 59.909,354.151 58.374 C 354.365 56.531,354.622 55.159,354.905 54.333 C 355.320 53.124,355.833 49.994,355.833 48.670 C 355.833 48.053,356.920 42.765,357.110 42.457 C 357.322 42.113,357.685 39.946,357.828 38.167 C 357.913 37.112,358.142 35.650,358.338 34.917 C 358.949 32.633,359.156 31.632,359.328 30.136 C 359.922 24.977,360.437 23.305,361.627 22.677 C 362.650 22.137,369.958 22.171,370.355 22.718 M219.682 30.015 C 217.967 30.701,217.730 38.504,219.387 39.734 C 220.739 40.738,224.622 40.147,226.915 38.588 C 229.535 36.808,228.893 32.135,225.857 30.885 C 225.523 30.747,225.025 30.532,224.750 30.407 C 223.563 29.865,220.626 29.638,219.682 30.015 M335.896 29.948 C 335.381 30.049,334.917 30.634,334.606 31.571 C 334.150 32.946,334.197 57.374,334.658 58.072 C 335.547 59.420,338.897 59.417,340.970 58.066 C 342.415 57.125,342.648 56.862,343.393 55.333 L 344.083 53.917 344.083 44.333 L 344.083 34.750 343.519 33.583 C 342.517 31.515,341.705 30.847,339.183 30.019 C 338.645 29.843,336.654 29.799,335.896 29.948 M223.583 31.090 C 225.690 31.542,227.157 32.433,227.633 33.548 C 228.249 34.988,227.899 36.974,226.940 37.488 C 226.698 37.617,226.500 37.776,226.500 37.841 C 226.500 37.906,226.106 38.127,225.625 38.334 C 225.144 38.540,224.551 38.849,224.308 39.021 C 222.955 39.977,220.030 39.322,219.511 37.947 C 219.271 37.313,219.279 32.418,219.520 31.947 C 220.227 30.573,220.705 30.472,223.583 31.090 M339.417 31.153 C 340.058 31.355,340.771 31.565,341.000 31.618 C 341.766 31.797,342.667 33.142,342.667 34.105 C 342.667 34.232,342.854 34.724,343.083 35.199 L 343.500 36.062 343.497 43.823 C 343.495 49.914,343.445 51.780,343.262 52.500 C 342.716 54.647,342.079 56.430,341.780 56.647 C 341.105 57.138,339.710 57.800,338.833 58.044 C 336.998 58.555,336.788 58.552,336.028 58.001 L 335.333 57.498 335.333 45.077 C 335.333 31.495,335.307 31.872,336.300 31.039 C 336.851 30.577,337.689 30.608,339.417 31.153 M365.307 41.631 C 364.120 44.075,363.767 45.514,363.337 49.667 C 362.858 54.279,363.130 55.000,365.342 55.000 C 368.030 54.999,368.653 53.895,367.832 50.583 C 367.651 49.850,367.388 48.012,367.248 46.500 C 367.026 44.103,366.482 39.322,366.434 39.339 C 366.424 39.343,365.917 40.374,365.307 41.631 M193.734 39.840 C 193.172 40.196,192.951 40.902,192.747 43.000 C 192.689 43.596,192.426 44.983,192.162 46.083 C 191.085 50.586,190.867 53.392,191.514 54.439 L 191.861 55.000 193.752 55.000 L 195.644 55.000 195.989 54.516 C 196.425 53.903,196.474 51.384,196.073 50.083 C 195.932 49.625,195.752 48.800,195.671 48.250 C 195.591 47.700,195.371 46.387,195.181 45.333 C 194.991 44.279,194.834 43.042,194.833 42.583 C 194.828 40.264,194.471 39.373,193.734 39.840 M366.647 46.825 C 366.658 47.782,366.791 49.517,366.943 50.678 C 367.272 53.187,367.066 53.865,365.917 54.051 C 365.247 54.160,364.201 54.024,364.069 53.810 C 363.484 52.863,363.755 48.719,364.498 47.255 C 364.795 46.669,365.077 45.848,365.124 45.431 C 365.171 45.013,365.312 44.587,365.438 44.482 C 365.564 44.378,365.667 44.220,365.667 44.131 C 365.667 44.042,365.835 43.765,366.042 43.514 L 366.417 43.059 366.522 44.071 C 366.580 44.628,366.636 45.867,366.647 46.825 M194.634 47.596 C 194.737 48.938,194.876 49.650,195.144 50.202 C 195.793 51.544,195.828 53.664,195.204 53.918 C 195.046 53.982,194.271 54.074,193.482 54.123 L 192.048 54.210 191.857 53.664 C 191.459 52.520,191.724 49.932,192.345 48.907 C 192.709 48.307,193.167 46.645,193.167 45.923 C 193.167 45.566,193.326 45.270,193.708 44.917 L 194.250 44.417 194.371 45.083 C 194.437 45.450,194.555 46.581,194.634 47.596 " stroke="none" fill="#9193d8" fill-rule="evenodd"></path><path id="path4" d="M127.871 7.278 C 127.146 7.570,127.167 6.452,127.167 44.496 L 127.167 80.451 127.575 80.892 C 128.105 81.464,128.575 81.450,129.179 80.846 L 129.667 80.359 129.667 44.439 C 129.667 8.610,129.666 8.518,129.327 7.944 C 128.948 7.300,128.418 7.058,127.871 7.278 M128.994 44.404 C 129.000 77.506,128.979 80.247,128.724 80.529 C 128.379 80.910,128.181 80.913,127.899 80.542 C 127.526 80.051,127.564 8.923,127.938 8.174 L 128.209 7.631 128.598 8.107 L 128.988 8.583 128.994 44.404 M250.152 21.985 C 248.590 22.206,246.147 23.562,244.640 25.045 C 242.277 27.369,241.934 27.913,241.009 30.807 L 240.167 33.438 240.167 44.681 C 240.167 57.231,240.063 55.970,241.406 59.750 C 241.731 60.667,241.998 61.429,241.999 61.445 C 241.999 61.461,242.324 61.798,242.720 62.195 C 243.116 62.592,243.580 63.131,243.751 63.394 C 246.228 67.187,256.003 68.688,258.961 65.729 C 259.086 65.604,259.705 65.195,260.335 64.821 C 261.269 64.266,261.680 63.871,262.549 62.695 C 263.963 60.782,264.066 60.558,264.898 57.583 C 265.052 57.033,265.288 56.246,265.423 55.833 C 265.617 55.239,265.668 54.023,265.667 49.987 C 265.666 43.291,266.251 43.787,258.460 43.868 C 252.431 43.930,252.702 43.680,252.859 49.025 C 252.931 51.460,253.018 51.587,254.720 51.750 C 256.044 51.877,257.237 52.433,257.419 53.008 C 257.911 54.556,256.562 58.356,255.363 58.802 C 251.435 60.263,248.692 58.734,248.418 54.931 C 248.357 54.098,248.333 48.915,248.362 43.413 L 248.417 33.409 248.954 32.317 C 250.711 28.749,255.153 28.591,256.577 32.046 C 256.736 32.433,256.976 33.004,257.109 33.315 C 257.242 33.626,257.395 34.363,257.450 34.953 C 257.652 37.111,258.582 37.835,261.150 37.831 C 264.779 37.825,265.664 37.308,265.666 35.191 C 265.667 33.061,264.390 28.948,263.277 27.500 C 262.890 26.996,262.396 26.321,262.180 26.000 C 261.493 24.978,258.252 22.813,256.446 22.168 C 255.789 21.934,251.413 21.807,250.152 21.985 M156.971 22.605 C 156.017 23.001,155.833 23.573,155.833 26.158 C 155.833 29.859,155.495 29.692,163.167 29.780 C 170.126 29.860,169.667 29.789,169.667 30.782 C 169.667 31.673,168.576 34.377,167.663 35.750 C 167.480 36.025,167.068 36.800,166.747 37.472 C 166.425 38.144,165.980 38.934,165.756 39.227 C 165.533 39.520,165.184 40.207,164.981 40.755 C 164.778 41.302,164.326 42.129,163.977 42.593 C 163.617 43.071,163.188 43.936,162.986 44.593 C 162.790 45.229,162.384 46.087,162.083 46.500 C 161.782 46.913,161.302 47.733,161.016 48.324 C 160.731 48.915,160.357 49.552,160.185 49.741 C 159.819 50.142,159.423 50.910,159.278 51.500 C 159.221 51.729,158.803 52.545,158.349 53.314 C 157.894 54.082,157.437 55.069,157.332 55.507 C 157.224 55.955,156.901 56.584,156.594 56.944 C 155.334 58.419,154.997 59.734,155.005 63.156 C 155.014 66.988,153.851 66.664,167.630 66.666 C 181.263 66.667,180.711 66.771,180.222 64.284 C 180.092 63.624,179.933 62.337,179.868 61.425 L 179.750 59.768 179.167 59.425 C 178.610 59.099,178.295 59.081,172.250 59.040 C 168.767 59.016,165.754 58.959,165.555 58.915 C 164.723 58.728,164.882 57.088,165.846 55.922 C 166.203 55.490,166.576 54.838,166.674 54.474 C 166.859 53.785,167.388 52.759,168.090 51.724 C 168.315 51.392,168.573 50.850,168.662 50.519 C 168.751 50.188,169.087 49.504,169.409 49.000 C 169.730 48.496,170.229 47.596,170.517 47.000 C 170.805 46.405,171.252 45.611,171.509 45.237 C 171.767 44.862,172.139 44.074,172.336 43.486 C 172.534 42.898,172.982 42.042,173.333 41.583 C 173.684 41.125,174.131 40.275,174.325 39.695 C 174.520 39.115,174.947 38.253,175.275 37.779 C 175.602 37.305,176.049 36.515,176.267 36.024 C 176.485 35.534,176.919 34.784,177.231 34.358 C 177.544 33.932,177.880 33.282,177.979 32.913 C 178.078 32.545,178.424 31.803,178.748 31.265 C 180.196 28.860,179.987 23.340,178.420 22.596 C 177.600 22.207,157.910 22.215,156.971 22.605 M189.616 22.671 C 188.611 23.462,187.624 27.178,187.250 31.583 C 187.110 33.238,186.813 34.595,186.283 36.000 C 186.008 36.731,185.785 37.897,185.598 39.583 C 185.446 40.958,185.241 42.421,185.142 42.833 C 185.044 43.246,184.908 43.996,184.839 44.500 C 184.770 45.004,184.524 46.129,184.291 47.000 C 184.041 47.937,183.752 49.774,183.583 51.500 C 183.404 53.329,183.174 54.759,182.968 55.333 C 182.502 56.627,182.078 58.646,181.599 61.837 C 181.373 63.352,181.112 64.788,181.021 65.027 C 180.370 66.741,187.519 67.492,188.782 65.843 C 188.892 65.700,189.026 65.171,189.081 64.667 C 189.335 62.347,189.889 61.996,193.289 62.006 C 197.378 62.017,198.500 62.671,198.500 65.041 C 198.500 66.386,199.150 66.667,202.272 66.667 C 206.712 66.667,206.826 66.405,205.354 59.583 C 204.630 56.224,204.331 54.486,204.156 52.599 C 204.055 51.508,203.896 50.420,203.803 50.182 C 203.293 48.875,202.940 46.995,202.331 42.356 C 201.981 39.687,201.608 37.812,201.253 36.933 C 201.138 36.649,200.915 35.254,200.756 33.833 C 200.190 28.751,200.018 27.812,199.222 25.420 C 198.108 22.075,198.553 22.333,193.910 22.333 C 190.282 22.333,190.019 22.354,189.616 22.671 M211.603 22.838 C 210.671 23.657,210.669 23.683,210.668 34.943 C 210.667 44.434,210.639 45.490,210.334 47.527 C 210.039 49.505,210.002 50.617,210.001 57.601 L 210.000 65.451 210.396 65.879 C 211.445 67.011,216.787 67.015,218.036 65.884 C 218.313 65.633,218.334 65.075,218.341 57.516 C 218.352 46.880,218.214 47.109,224.024 48.088 C 225.045 48.260,226.517 49.651,227.483 51.356 L 228.083 52.417 228.134 59.028 L 228.184 65.639 228.618 66.073 C 229.210 66.665,229.355 66.685,232.577 66.631 L 235.404 66.583 235.785 66.017 C 236.787 64.529,236.192 51.164,235.024 48.929 C 234.644 48.202,234.333 47.524,234.333 47.421 C 234.333 47.318,233.997 46.722,233.586 46.097 L 232.839 44.959 233.612 43.438 C 234.037 42.601,234.682 41.555,235.046 41.113 C 235.995 39.958,236.184 39.179,236.286 36.000 C 236.400 32.413,235.801 29.167,235.026 29.167 C 234.963 29.167,234.838 29.022,234.748 28.846 C 233.872 27.138,233.356 26.518,231.750 25.244 C 231.292 24.881,230.830 24.501,230.723 24.401 C 230.616 24.301,230.316 24.139,230.056 24.041 C 229.796 23.944,228.721 23.538,227.667 23.140 L 225.750 22.417 218.974 22.366 L 212.198 22.316 211.603 22.838 M271.211 22.554 C 269.837 23.054,269.803 23.611,269.720 46.976 L 269.654 65.536 270.086 66.101 L 270.517 66.667 280.014 66.667 C 292.156 66.667,291.500 66.859,291.500 63.307 C 291.500 58.966,291.559 59.000,283.990 59.000 C 277.082 59.000,277.500 59.357,277.500 53.448 L 277.500 49.550 277.983 48.884 C 278.600 48.032,278.803 48.006,284.833 47.994 C 291.595 47.981,291.463 48.064,291.487 43.823 C 291.507 40.279,291.541 40.296,284.415 40.173 C 277.481 40.053,277.715 40.214,277.548 35.445 C 277.379 30.620,277.540 30.500,284.199 30.500 C 289.216 30.500,289.537 30.450,290.544 29.509 C 292.097 28.057,291.772 23.510,290.051 22.624 C 289.344 22.260,272.196 22.197,271.211 22.554 M298.083 22.594 C 296.811 23.237,296.922 21.223,296.872 44.646 C 296.836 61.336,296.870 65.593,297.039 65.797 C 298.154 67.145,303.142 67.018,304.309 65.612 C 304.659 65.190,304.484 53.097,304.109 51.833 C 303.315 49.156,304.258 44.806,305.160 46.984 C 305.270 47.249,305.549 47.643,305.779 47.859 C 306.299 48.344,306.531 48.785,307.052 50.275 C 307.277 50.919,307.759 51.890,308.123 52.432 C 308.488 52.973,308.926 53.829,309.097 54.333 C 309.268 54.837,309.575 55.477,309.779 55.755 C 310.256 56.404,310.823 57.655,310.835 58.083 C 310.846 58.473,311.237 59.303,311.867 60.274 C 312.113 60.653,312.439 61.345,312.592 61.810 C 312.744 62.276,313.104 63.010,313.393 63.441 C 314.006 64.359,313.994 64.338,314.515 65.414 C 315.060 66.541,315.371 66.661,317.747 66.664 C 319.727 66.667,319.750 66.662,320.538 66.125 L 321.333 65.583 321.333 50.727 C 321.333 36.280,321.324 35.850,321.004 35.143 C 320.699 34.472,320.674 34.036,320.669 29.417 C 320.663 22.267,320.693 22.333,317.398 22.333 C 313.592 22.333,313.772 21.838,313.667 32.583 C 313.570 42.460,313.579 42.394,312.298 42.301 L 311.586 42.250 311.194 41.000 C 310.979 40.313,310.471 39.075,310.066 38.250 C 309.660 37.425,309.187 36.330,309.015 35.816 C 308.842 35.302,308.518 34.589,308.293 34.232 C 308.069 33.875,307.727 33.125,307.535 32.566 C 307.084 31.257,306.379 29.666,306.107 29.339 C 305.989 29.198,305.758 28.633,305.592 28.083 C 305.020 26.187,304.832 25.747,304.168 24.750 C 303.801 24.200,303.501 23.682,303.501 23.599 C 303.500 23.516,303.309 23.197,303.075 22.891 L 302.650 22.333 300.617 22.337 C 299.137 22.340,298.447 22.410,298.083 22.594 M328.000 22.603 C 326.819 23.343,326.922 21.340,326.872 44.646 C 326.837 60.728,326.873 65.597,327.027 65.783 C 327.725 66.623,328.093 66.667,334.536 66.667 C 341.326 66.667,341.777 66.607,343.878 65.432 C 344.467 65.103,345.061 64.833,345.198 64.833 C 345.428 64.833,346.540 63.954,348.000 62.617 C 349.225 61.496,349.808 60.601,350.768 58.367 L 351.750 56.083 351.750 44.167 L 351.750 32.250 351.108 30.917 C 350.754 30.183,350.347 29.283,350.202 28.917 C 349.474 27.070,346.497 24.349,344.437 23.646 C 343.692 23.392,342.558 22.996,341.917 22.766 C 340.424 22.231,328.812 22.095,328.000 22.603 M361.627 22.677 C 360.437 23.305,359.922 24.977,359.328 30.136 C 359.156 31.632,358.949 32.633,358.338 34.917 C 358.142 35.650,357.913 37.112,357.828 38.167 C 357.685 39.946,357.322 42.113,357.110 42.457 C 356.920 42.765,355.833 48.053,355.833 48.670 C 355.833 49.994,355.320 53.124,354.905 54.333 C 354.622 55.159,354.365 56.531,354.151 58.374 C 353.972 59.909,353.753 61.357,353.663 61.593 C 353.573 61.829,353.499 62.223,353.498 62.469 C 353.497 62.715,353.349 63.516,353.169 64.248 C 352.804 65.738,352.801 65.732,353.914 66.317 C 354.900 66.836,358.519 66.834,359.538 66.314 C 360.490 65.828,360.631 65.656,361.057 64.461 C 361.858 62.210,362.222 62.000,365.319 62.000 C 367.448 62.000,367.713 62.048,369.107 62.688 C 370.004 63.100,370.093 63.227,370.327 64.417 C 370.621 65.915,370.640 65.957,371.237 66.325 C 371.730 66.630,372.060 66.667,374.328 66.667 C 378.702 66.667,378.773 66.538,377.447 61.000 C 376.774 58.191,376.517 56.689,376.417 55.000 C 376.316 53.275,376.046 51.600,375.789 51.098 C 375.424 50.385,374.777 46.567,374.511 43.556 C 374.404 42.348,374.153 41.088,373.752 39.750 C 373.312 38.284,373.047 36.882,372.756 34.500 C 372.272 30.524,372.047 29.117,371.759 28.250 C 371.557 27.639,371.395 26.919,370.826 24.088 C 370.458 22.258,370.688 22.343,366.167 22.346 C 362.591 22.348,362.196 22.377,361.627 22.677 M255.715 22.748 C 256.238 22.884,256.948 23.173,257.292 23.389 C 257.635 23.605,258.311 23.912,258.793 24.071 C 259.275 24.231,259.744 24.500,259.835 24.671 C 259.927 24.841,260.347 25.228,260.770 25.532 C 262.187 26.549,263.674 29.097,264.084 31.209 C 264.212 31.873,264.468 32.869,264.651 33.423 C 265.449 35.830,265.363 36.130,263.722 36.676 C 260.922 37.608,258.333 36.878,258.333 35.156 C 258.333 34.197,257.837 32.796,256.946 31.242 C 255.070 27.970,249.759 28.459,248.252 32.043 C 248.088 32.432,247.852 32.986,247.727 33.275 C 247.468 33.873,247.381 56.500,247.638 56.500 C 247.713 56.500,248.120 57.044,248.542 57.708 C 249.409 59.076,249.784 59.344,251.381 59.739 C 255.175 60.677,258.333 58.098,258.333 54.062 C 258.333 52.016,257.676 51.494,254.791 51.248 C 253.213 51.114,253.291 51.309,253.363 47.699 C 253.432 44.254,252.892 44.594,258.398 44.532 C 265.646 44.450,265.161 44.052,265.164 50.083 L 265.166 54.417 264.667 55.473 C 264.392 56.054,264.166 56.729,264.165 56.973 C 264.162 57.584,263.588 59.825,263.305 60.333 C 262.282 62.166,261.490 63.126,260.348 63.917 C 259.686 64.375,258.906 64.941,258.614 65.174 C 256.197 67.107,249.543 67.058,246.907 65.089 C 246.534 64.811,245.811 64.283,245.299 63.917 C 244.787 63.550,244.246 63.048,244.097 62.800 C 243.947 62.553,243.459 61.951,243.012 61.461 C 242.219 60.594,242.024 60.155,241.682 58.475 C 241.601 58.076,241.378 57.150,241.187 56.417 C 240.851 55.132,240.838 54.699,240.839 44.500 L 240.840 33.917 241.253 32.750 C 241.480 32.108,241.666 31.407,241.666 31.191 C 241.668 30.173,242.185 28.828,242.844 28.128 C 243.213 27.737,243.614 27.192,243.736 26.917 C 243.859 26.642,244.099 26.290,244.271 26.136 C 247.361 23.358,249.261 22.539,252.673 22.515 C 254.031 22.505,255.097 22.587,255.715 22.748 M177.929 23.364 C 179.114 24.013,179.213 28.709,178.089 30.963 C 177.873 31.396,177.616 32.050,177.518 32.417 C 177.419 32.783,177.118 33.339,176.849 33.652 C 176.580 33.965,176.155 34.715,175.904 35.319 C 175.653 35.923,175.164 36.793,174.817 37.253 C 174.470 37.713,174.119 38.388,174.036 38.754 C 173.954 39.119,173.554 39.905,173.147 40.501 C 172.407 41.582,172.111 42.198,171.933 43.019 C 171.881 43.259,171.564 43.854,171.230 44.340 C 170.895 44.827,170.377 45.755,170.078 46.404 C 169.780 47.053,169.368 47.760,169.163 47.975 C 168.957 48.190,168.625 48.838,168.423 49.415 C 168.222 49.991,167.775 50.887,167.431 51.406 C 167.087 51.925,166.619 52.903,166.391 53.580 C 166.164 54.256,165.804 54.984,165.592 55.197 C 164.947 55.844,164.167 57.450,164.168 58.129 C 164.171 59.447,164.471 59.500,171.894 59.500 C 178.924 59.500,178.752 59.482,179.065 60.232 C 179.233 60.633,179.718 64.329,179.746 65.415 C 179.763 66.109,179.088 66.150,167.609 66.159 L 156.635 66.167 156.129 65.806 L 155.623 65.446 155.703 62.598 C 155.790 59.508,156.043 58.488,156.925 57.659 C 157.143 57.454,157.446 56.912,157.598 56.456 C 157.750 55.999,158.188 55.091,158.572 54.438 C 158.956 53.785,159.443 52.712,159.652 52.054 C 159.907 51.255,160.196 50.714,160.521 50.424 C 160.789 50.185,161.190 49.580,161.411 49.079 C 161.633 48.579,162.087 47.757,162.421 47.254 C 162.755 46.751,163.129 45.958,163.252 45.493 C 163.437 44.792,164.078 43.682,164.500 43.333 C 164.674 43.190,165.167 42.045,165.167 41.785 C 165.167 41.383,165.718 40.273,166.139 39.828 C 166.353 39.602,166.736 38.967,166.991 38.417 C 167.245 37.867,167.729 37.010,168.067 36.514 C 168.405 36.018,168.813 35.230,168.975 34.764 C 169.137 34.298,169.505 33.551,169.794 33.104 C 170.083 32.657,170.406 31.903,170.512 31.430 C 170.998 29.258,170.735 29.173,163.567 29.169 L 157.883 29.167 157.178 28.656 L 156.473 28.145 156.528 26.169 C 156.592 23.895,156.808 23.476,158.066 23.186 C 159.400 22.878,177.336 23.039,177.929 23.364 M197.405 23.145 C 197.943 23.261,198.044 23.481,198.411 25.333 C 198.668 26.634,199.417 29.620,199.751 30.677 C 199.883 31.095,200.108 32.782,200.251 34.427 C 200.452 36.735,200.621 37.763,200.991 38.934 C 201.260 39.787,201.584 41.391,201.730 42.600 C 201.873 43.783,202.117 45.800,202.271 47.083 C 202.482 48.843,202.664 49.667,203.012 50.443 C 203.489 51.507,203.747 52.902,203.915 55.333 C 204.097 57.953,204.509 60.226,205.245 62.667 C 206.229 65.929,206.032 66.167,202.339 66.167 C 199.307 66.167,199.087 66.065,198.926 64.600 C 198.582 61.463,197.852 61.073,192.555 61.193 C 189.287 61.267,189.382 61.188,188.417 64.599 C 188.042 65.923,187.471 66.169,184.775 66.167 C 182.712 66.167,181.833 65.896,181.833 65.263 C 181.833 64.659,182.472 60.288,182.639 59.750 C 183.430 57.197,183.791 55.346,183.920 53.167 C 183.995 51.918,184.215 50.700,184.688 48.917 C 185.125 47.268,185.432 45.622,185.591 44.083 C 185.983 40.275,186.329 38.321,186.830 37.083 C 187.301 35.921,187.405 35.366,187.923 31.250 C 188.072 30.058,188.373 28.444,188.590 27.662 C 188.807 26.881,189.032 25.906,189.091 25.496 C 189.290 24.097,189.671 23.394,190.327 23.209 C 190.973 23.026,196.620 22.975,197.405 23.145 M224.917 23.245 C 225.558 23.379,226.796 23.677,227.667 23.907 C 228.537 24.137,229.373 24.327,229.524 24.329 C 229.674 24.331,229.838 24.439,229.887 24.567 C 229.937 24.696,230.564 25.249,231.280 25.797 C 232.869 27.013,233.162 27.329,233.782 28.500 C 234.049 29.004,234.535 29.766,234.862 30.192 C 235.710 31.300,235.904 32.507,235.790 35.984 C 235.690 39.030,235.591 39.441,234.748 40.309 C 234.431 40.634,234.048 41.167,233.896 41.492 C 233.744 41.817,233.359 42.478,233.042 42.961 C 232.029 44.499,232.017 45.285,232.991 46.350 C 233.319 46.709,233.635 47.345,233.851 48.083 C 234.039 48.725,234.443 49.740,234.749 50.340 C 235.547 51.901,235.667 53.142,235.667 59.825 C 235.667 65.014,235.638 65.650,235.391 65.855 C 234.913 66.253,229.802 66.282,229.264 65.889 L 228.844 65.583 228.839 59.239 C 228.832 51.456,228.927 51.936,226.872 49.264 C 225.967 48.087,225.587 47.900,223.294 47.499 C 220.331 46.980,218.881 47.145,217.979 48.105 L 217.583 48.527 217.500 57.053 L 217.417 65.580 216.833 65.866 C 215.945 66.300,212.515 66.280,211.533 65.834 L 210.817 65.509 210.868 56.963 C 210.910 49.849,210.960 48.333,211.164 47.917 C 211.371 47.497,211.424 45.589,211.497 36.000 C 211.589 24.139,211.593 24.059,212.287 23.292 C 212.652 22.889,223.036 22.851,224.917 23.245 M289.503 23.375 C 290.953 24.358,290.865 28.726,289.384 29.300 C 289.097 29.411,286.983 29.502,283.915 29.536 C 276.836 29.613,277.010 29.468,277.004 35.288 C 276.998 41.021,276.609 40.717,284.083 40.833 C 288.777 40.907,289.482 40.952,289.958 41.213 L 290.500 41.509 290.500 43.843 C 290.500 47.840,290.816 47.664,283.620 47.666 C 276.355 47.667,276.965 47.102,277.034 53.763 C 277.099 60.022,276.461 59.498,284.017 59.499 C 290.850 59.500,290.500 59.294,290.500 63.319 L 290.500 65.516 289.792 65.838 C 288.774 66.300,270.977 66.349,270.471 65.891 C 270.051 65.510,270.001 30.699,270.417 28.000 C 270.551 27.129,270.662 25.974,270.664 25.432 C 270.671 23.066,270.779 23.040,280.934 23.018 L 288.951 23.000 289.503 23.375 M302.056 23.109 C 302.421 23.170,302.736 23.330,302.789 23.482 C 303.047 24.221,303.599 25.347,304.119 26.195 C 304.437 26.715,304.869 27.729,305.078 28.448 C 305.287 29.167,305.678 30.102,305.946 30.525 C 306.214 30.948,306.531 31.622,306.651 32.022 C 307.152 33.702,307.406 34.288,307.930 34.975 C 308.268 35.417,308.564 36.068,308.689 36.642 C 308.802 37.160,309.294 38.389,309.784 39.373 C 310.274 40.358,310.721 41.408,310.778 41.707 C 310.963 42.676,311.450 43.410,312.413 44.171 C 312.933 44.581,313.468 45.125,313.603 45.380 C 314.286 46.675,314.362 45.727,314.479 34.500 C 314.572 25.488,314.613 24.362,314.864 23.905 C 315.550 22.653,319.376 22.649,319.845 23.899 C 320.130 24.658,320.307 34.880,320.321 51.418 L 320.333 65.586 319.958 65.826 C 319.350 66.216,316.465 66.276,315.666 65.917 C 315.097 65.660,315.001 65.529,314.827 64.772 C 314.718 64.301,314.415 63.643,314.153 63.307 C 313.675 62.697,313.513 62.374,312.826 60.667 C 312.623 60.163,312.251 59.514,311.999 59.226 C 311.687 58.869,311.452 58.302,311.262 57.446 C 311.108 56.754,310.853 56.015,310.694 55.803 C 310.270 55.233,309.560 53.848,309.289 53.062 C 309.159 52.684,308.807 52.081,308.506 51.723 C 308.140 51.286,307.826 50.608,307.553 49.662 C 307.273 48.692,306.938 47.978,306.480 47.370 C 306.113 46.885,305.627 46.116,305.398 45.661 C 305.006 44.881,304.945 44.833,304.331 44.833 C 303.167 44.833,303.203 44.303,303.416 58.417 L 303.524 65.583 303.028 65.875 C 302.329 66.286,299.180 66.280,298.333 65.865 L 297.750 65.580 297.705 45.165 C 297.655 22.674,297.606 23.817,298.655 23.246 C 299.107 23.001,300.949 22.926,302.056 23.109 M340.367 23.176 C 340.853 23.272,341.512 23.452,341.833 23.575 C 342.154 23.698,343.037 23.937,343.794 24.105 C 344.992 24.372,345.269 24.505,345.913 25.123 C 346.321 25.514,346.703 25.833,346.762 25.833 C 346.980 25.833,347.926 26.732,348.224 27.221 C 348.393 27.499,348.714 27.870,348.936 28.045 C 349.414 28.421,349.765 29.057,349.981 29.941 C 350.068 30.294,350.335 31.107,350.575 31.748 L 351.011 32.912 350.961 44.331 L 350.912 55.750 350.472 57.000 C 350.231 57.688,349.937 58.620,349.819 59.073 C 349.677 59.620,349.388 60.120,348.957 60.565 C 348.599 60.933,348.208 61.425,348.086 61.659 C 347.885 62.047,346.987 62.833,346.746 62.833 C 346.691 62.833,346.456 63.058,346.224 63.333 C 345.993 63.608,345.723 63.833,345.623 63.833 C 345.524 63.833,345.325 63.937,345.180 64.064 C 345.035 64.191,344.429 64.466,343.833 64.677 C 343.238 64.887,342.563 65.187,342.333 65.344 C 341.063 66.214,329.849 66.646,328.256 65.886 L 327.667 65.605 327.667 45.129 C 327.667 22.610,327.616 23.767,328.624 23.181 C 329.022 22.949,339.205 22.945,340.367 23.176 M369.950 23.208 C 370.208 23.548,370.469 24.670,370.580 25.917 C 370.638 26.558,370.751 27.421,370.831 27.833 C 370.912 28.246,371.106 29.296,371.263 30.167 C 371.420 31.037,371.688 32.111,371.859 32.552 C 372.063 33.077,372.255 34.341,372.417 36.218 C 372.641 38.819,372.930 40.482,373.247 40.995 C 373.312 41.100,373.427 41.575,373.504 42.051 C 373.580 42.527,373.835 44.004,374.069 45.333 C 374.304 46.663,374.497 48.096,374.498 48.519 C 374.501 49.658,374.783 50.945,375.242 51.915 C 375.674 52.829,375.830 53.811,376.257 58.333 C 376.485 60.753,376.774 62.232,377.494 64.666 C 377.866 65.922,377.347 66.167,374.306 66.167 C 371.465 66.167,371.000 65.947,371.000 64.605 C 371.000 63.302,370.470 62.397,369.333 61.762 L 368.417 61.250 365.417 61.250 C 361.581 61.250,360.713 61.849,359.909 65.056 C 359.500 66.683,353.632 66.632,353.898 65.003 C 353.951 64.681,354.071 63.629,354.165 62.667 C 354.480 59.434,354.874 57.093,355.341 55.667 C 355.657 54.703,355.894 53.424,356.083 51.667 C 356.235 50.246,356.548 48.408,356.779 47.583 C 357.680 44.361,357.739 44.008,358.178 39.167 C 358.273 38.112,358.429 37.109,358.524 36.936 C 359.119 35.856,359.745 33.027,359.911 30.667 C 360.184 26.799,361.200 23.781,362.409 23.250 C 363.114 22.940,369.719 22.904,369.950 23.208 M219.750 29.266 C 217.674 29.784,217.583 30.025,217.583 35.000 C 217.583 40.470,217.726 40.678,221.563 40.804 C 224.068 40.887,225.299 40.646,226.232 39.889 C 226.608 39.583,227.234 39.128,227.621 38.878 C 229.338 37.771,229.666 33.104,228.132 31.615 C 227.625 31.122,225.368 29.732,224.753 29.534 C 224.070 29.314,220.355 29.115,219.750 29.266 M335.333 29.430 C 333.435 30.037,333.500 29.487,333.500 44.950 C 333.500 58.980,333.468 58.535,334.529 59.114 C 335.588 59.692,341.167 59.443,341.167 58.818 C 341.167 58.747,341.298 58.647,341.458 58.596 C 341.970 58.432,343.050 57.356,343.521 56.540 C 343.772 56.105,344.151 55.450,344.364 55.083 L 344.750 54.417 344.750 44.417 C 344.750 36.937,344.699 34.277,344.546 33.862 C 344.124 32.716,342.830 31.005,342.109 30.640 C 341.728 30.447,341.201 30.137,340.936 29.951 C 339.889 29.213,336.885 28.933,335.333 29.430 M223.500 30.010 C 223.912 30.103,224.475 30.281,224.750 30.407 C 225.025 30.532,225.523 30.747,225.857 30.885 C 228.893 32.135,229.535 36.808,226.915 38.588 C 223.784 40.716,219.429 40.793,218.680 38.734 C 218.047 36.994,218.303 31.463,219.062 30.463 C 219.526 29.852,221.774 29.622,223.500 30.010 M339.183 30.019 C 341.705 30.847,342.517 31.515,343.519 33.583 L 344.083 34.750 344.083 44.333 L 344.083 53.917 343.393 55.333 C 342.648 56.862,342.415 57.125,340.970 58.066 C 339.731 58.874,339.232 59.001,337.334 58.994 C 334.084 58.982,334.336 60.158,334.334 44.988 C 334.333 29.146,334.175 29.919,337.433 29.856 C 338.084 29.844,338.872 29.917,339.183 30.019 M365.836 37.556 C 365.261 38.145,365.003 38.744,364.567 40.500 C 364.420 41.096,364.168 41.813,364.007 42.094 C 363.581 42.838,363.347 43.993,363.164 46.250 C 363.075 47.350,362.887 48.925,362.746 49.750 C 361.844 55.045,362.265 55.804,366.011 55.626 C 369.118 55.479,369.501 54.629,368.583 49.933 C 368.354 48.761,368.167 47.618,368.167 47.393 C 368.167 47.168,368.043 46.745,367.892 46.453 C 367.712 46.103,367.570 45.210,367.479 43.836 C 367.180 39.338,367.034 38.050,366.765 37.529 C 366.432 36.884,366.495 36.882,365.836 37.556 M193.718 37.583 C 193.089 37.850,192.994 38.135,192.419 41.479 C 192.204 42.728,191.879 44.127,191.696 44.587 C 190.953 46.458,190.266 54.106,190.779 54.796 C 191.402 55.636,194.763 56.071,196.060 55.480 C 197.352 54.891,197.310 50.475,195.965 45.521 C 195.647 44.353,195.367 42.754,195.233 41.355 C 194.906 37.916,194.618 37.201,193.718 37.583 M366.722 41.542 C 366.871 42.756,367.107 44.987,367.248 46.500 C 367.388 48.012,367.651 49.850,367.832 50.583 C 368.653 53.895,368.030 54.999,365.342 55.000 C 362.853 55.000,362.600 53.476,363.849 46.000 C 364.142 44.245,365.983 39.501,366.434 39.339 C 366.443 39.336,366.573 40.327,366.722 41.542 M194.670 40.762 C 194.759 41.306,194.832 42.125,194.833 42.583 C 194.834 43.042,194.991 44.279,195.181 45.333 C 195.371 46.387,195.591 47.700,195.671 48.250 C 195.752 48.800,195.932 49.625,196.073 50.083 C 196.474 51.384,196.425 53.903,195.989 54.516 L 195.644 55.000 193.752 55.000 L 191.861 55.000 191.514 54.439 C 190.867 53.392,191.085 50.586,192.162 46.083 C 192.426 44.983,192.689 43.596,192.747 43.000 C 192.951 40.902,193.172 40.196,193.734 39.840 C 194.373 39.436,194.468 39.530,194.670 40.762 " stroke="none" fill="#7c7cd4" fill-rule="evenodd"></path></g></svg>